<svg xmlns="http://www.w3.org/2000/svg" width="107.777" height="156.825" viewBox="0 0 107.777 156.825">
    <defs>
        <clipPath id="gf3xxdd89a">
            <path data-name="長方形 1828" style="fill:none" d="M0 0h107.777v156.826H0z"/>
        </clipPath>
    </defs>
    <g data-name="グループ 2807" style="clip-path:url(#gf3xxdd89a)">
        <path data-name="パス 3696" d="m372.607 238.812-.288.466a10.877 10.877 0 0 1-2.175 2.816l-.347.271.18.314a12.343 12.343 0 0 1 0 2.993l-1.373.505 1.392.455a2.39 2.39 0 0 1 1.507 1.188 2.323 2.323 0 0 1 .2 1.261 9.585 9.585 0 0 1-2.423-.635c-.585-2.609-2.746-6.248-6.677-7.2 1.937-1.354 3.555-4.169 4.265-7.5.744-3.511.332-6.842-1.112-8.909-1.615-2.313-1.771-3.384-1.881-4.163a3.23 3.23 0 0 0-.536-1.555c.56-.028 1.171.013 1.336.354.1.2.193.421.291.657a4.866 4.866 0 0 0 1.908 2.622 10.176 10.176 0 0 0 1.808.657 7.57 7.57 0 0 1 3.251 1.528c1.115 1.315 3.645 5.866 3.538 7.86-.08 1.454-1.672 4.135-2.865 6.023m-4.336 15.768a7.118 7.118 0 0 0-.21 1.353c0 2.139-.377 3.1-.734 3.29a4.1 4.1 0 0 1-.986.244c-.9.159-2.27.4-2.328 1.751-.043 1.026-1.58 1.637-2.43 1.69a9.2 9.2 0 0 1-1.045-.049c-1.358-.109-3.045-.243-3.508.831a4.6 4.6 0 0 0-.213.668c-.164.631-.254.822-.54.858-.13.019-.2-.019-.411-.28a1.033 1.033 0 0 0-1.428-.388 6.441 6.441 0 0 1-3.4.464 1.535 1.535 0 0 0-1.7-.971 23.2 23.2 0 0 1-3.94-.056c-1.278-.116-2.567-1.862-3.6-3.259-.954-1.288-1.579-2.143-2.313-2.07a3.163 3.163 0 0 1-2.393-1.432c-.62-.78-1.388-1.749-1.263-5.314v-.018a2.824 2.824 0 0 1 .637-2.09c.588-.519 1.68-.4 2.842-.284 1.457.154 3.1.315 4.411-.639a13.155 13.155 0 0 0 3.125.575h.08a2.111 2.111 0 0 0 2.222-1.565 1.611 1.611 0 0 0-.4-1.31 13.168 13.168 0 0 0 3.7-1.667 10.109 10.109 0 0 0 2.269.295c2.448 0 3.951-1.13 5.515-2.309.373-.281.764-.567 1.169-.847 3.914.4 6.122 3.734 6.815 6.245l.153.655a12.029 12.029 0 0 1-.091 5.625m-19.68 29.588c.095.107.159.586-.25 1.6-.052.11-.093.2-.131.266a40.411 40.411 0 0 1-5.767-9.6l-.067-.153-.144-.087a39.22 39.22 0 0 1-1.537-.986c-2.087-1.374-2.931-1.875-3.467-1.673l-.319.171-.073.241a5.392 5.392 0 0 1-4.816 3.324.551.551 0 0 0-.019-.349l-.134-.278-.267-.054a3 3 0 0 0-.833.05c-.406.045-1.325.138-1.881.136a.644.644 0 0 0 .147-.387.668.668 0 0 0-.209-.508c-.251-.251-.617-.234-1.172-.206a3.432 3.432 0 0 1-2.606-.59.667.667 0 0 0 .21-.153l.172-.2-.047-.247c-.052-.286-.256-.394-.6-.572a4.612 4.612 0 0 1-2.184-1.961.706.706 0 0 0 .514-.607c.018-.258-.118-.433-.387-.778a4.671 4.671 0 0 1-1.228-2.871.65.65 0 0 0 .675-.366c.073-.191.037-.3-.1-.72-.211-.648-.846-2.618-.454-3.359.215-.232 1.534-.067 1.964-.013a3.065 3.065 0 0 0 .969.041l.353-.135.093-.257a.576.576 0 0 0-.034-.445c.43.065 1.1.256 1.478.36a3.826 3.826 0 0 0 1.25.256l.372-.082.114-.26a.56.56 0 0 0 0-.486c.368.132.878.373 1.171.514.74.355 1.087.516 1.368.467l.383-.1.093-.208c.459.23 1.233.657 2.548 1.422l.159.093a.631.631 0 0 0 .721.019.528.528 0 0 0 .118-.108 12.064 12.064 0 0 1 3.142 3.9 4.889 4.889 0 0 1-.282 3.659 1.24 1.24 0 0 0-.138.449c-.01.351-.015.565 3.276 2.034l.951.425-.259-1.012a69.025 69.025 0 0 1-1.795-14.069 4.394 4.394 0 0 1 .779.852c-.026 8.326 3.245 17.784 8.179 23.6m-13.75-32.544c-.425.317-.843.635-1.259.951-2.257 1.736-4.391 3.37-7.131 4a10.252 10.252 0 0 1-7.652-1.756 6.971 6.971 0 0 1-1.971-2.2c-.075-.125-.131-.229-.192-.312a5.664 5.664 0 0 0-.657-.691c-.254-.24-.835-.791-.835-.988.024-.08.247-.47 2.449-.4a.637.637 0 0 0 .688-.1c.353-.325.183-.785-.093-1.548-.307-.843-.774-2.12-.391-2.832 1.287-2.4.7-5.085.226-7.243-.329-1.484-.608-2.763-.1-3.227l1.048-.962-1.418.082a1.905 1.905 0 0 1-.841-.152c.667-1.423 4.1-3.107 5.894-3.467 1.925 4.271 4.551 5.877 7.1 7.412.828.494 1.685 1.012 2.513 1.617.592.7 1.027 1.289 1.432 1.833a20.933 20.933 0 0 0 5.175 5.121l.3-.4-.254.427c.179.109.373.212.564.317h-.006c.394.245.553.505.49.772a.95.95 0 0 1-.611.615c-1.345-.14-2.614-.251-3.505.544a3.551 3.551 0 0 0-.954 2.577m-12.81-23.865c-1.287-1.4-2.894-3.142-1.878-6.987.6-2.276 4.273-6.653 6.05-6.172 1.192.3 2.281-1.173 3.325-2.6.538-.736 1.272-1.749 1.631-1.818.948-.175 7.637.885 11.349 4.367a13.186 13.186 0 0 0-4.362 2c-4.734 3.277-5.676 9.444-4.876 13.343a6.861 6.861 0 0 0-5.771-2.343 2.306 2.306 0 0 0-1.881 1.375 2.987 2.987 0 0 0 .725 2.89 1.306 1.306 0 0 1 0 .668 2.013 2.013 0 0 0 .127 1.287 24.243 24.243 0 0 0 2.481 2.653l.015.015.006.006c.127.117.233.221.349.339a13.359 13.359 0 0 1-5.954-6.732 3.907 3.907 0 0 0-1.34-2.288m25.467-12.355a.6.6 0 0 0 .039.276l.165.286.215.078a1.428 1.428 0 0 0 .964-.131 9.555 9.555 0 0 1 2.223-.514c.863-.093 3.285 1.543 4.506 3.662a3.77 3.77 0 0 1 .486 3.191 4.119 4.119 0 0 0-1.6-1.452 2.044 2.044 0 0 1-.512-.763 3.129 3.129 0 0 0-1.311-1.549 2.37 2.37 0 0 0-1.208-.152 2.615 2.615 0 0 1-.4.015 4.026 4.026 0 0 1-.772-.273 4.835 4.835 0 0 0-.915-.325 2.356 2.356 0 0 0-2.023.518 3.966 3.966 0 0 0-2.345.4 1.729 1.729 0 0 1-.444.164 14.8 14.8 0 0 0-2.249-.071 5.04 5.04 0 0 0-4.458.228c-1.313.7-2.946 2.269-3.264 5.726-.325 3.555 1.566 8.585 3.087 12.626a94.88 94.88 0 0 1 1.159 3.183c-1.672-2.286-2.895-5.738-4.08-9.121l-.338-.962c-1.041-3.472-.4-9.815 4.278-13.057a11.27 11.27 0 0 1 8.792-1.979m.727-1.237a9.479 9.479 0 0 1 1.941.334.2.2 0 0 0 .03.006 10.706 10.706 0 0 0-1.571.421.464.464 0 0 0-.043-.113.614.614 0 0 0-.473-.308c-.124-.03-.272-.063-.428-.1a.8.8 0 0 1 .544-.243m8.216 15.541a12.578 12.578 0 0 0 .945-3.888c.609-.935 1.122-1.242 1.382-1.242.112.011.2.093.273.249a1.688 1.688 0 0 1-.348 1.6c-.105.219-.2.427-.291.626a1.628 1.628 0 0 0-.049.106h-.019v.049a5.711 5.711 0 0 1-1.739 2.366c-.046.039-.1.091-.149.135m-8.771 16.119a4.941 4.941 0 0 0-.419-.167c-.276-.08-.54-.141-.815-.208a18.822 18.822 0 0 1-2.755-.869.835.835 0 0 1 .174-.428 23.354 23.354 0 0 1 1.834-1.621 47.978 47.978 0 0 0 5.412-5.027c.587-.709 1.2-1.47 1.811-2.226a44.887 44.887 0 0 1 4.314-4.922 9.31 9.31 0 0 0 .364-.318 10.628 10.628 0 0 1-.68 1.393 10.628 10.628 0 0 0-.949 4c-.449 3.847-1.02 8.623-8.291 10.389m-10.845-6.651a12.551 12.551 0 0 0 2.442 3.35c-.374-.2-.753-.416-1.136-.644-.263-.149-.717-.734-1.306-2.706m1.68-2.637a6.8 6.8 0 0 1 .644-2.492 14.832 14.832 0 0 0 .846-2.792c.06.089.122.182.185.269.16.221.323.446.468.681a2.948 2.948 0 0 1 .18.377 2.243 2.243 0 0 0 2.186 1.637c.046 0 .093 0 .145-.006a85.89 85.89 0 0 1 1.98-.037c2.324-.037 5.566-.087 7.609-.291-.2.25-.409.5-.614.757-.608.754-1.22 1.511-1.81 2.212a47.476 47.476 0 0 1-5.278 4.9 15.817 15.817 0 0 0-2.031 1.836 2.24 2.24 0 0 0-.284.6 54.026 54.026 0 0 1-2.262-1.051c0-1.276-.822-3.457-1.838-6.154-.054-.143-.11-.3-.164-.44zm1.158-7.966c-.008.03-.019.067-.03.1a.71.71 0 0 0-.037-.05 1.389 1.389 0 0 1-.334-.691v-.032a2.428 2.428 0 0 1 .214.168c.011.019.043.108.073.191s.069.191.118.318m11.164 0a5.344 5.344 0 0 0 .831-1.225 3.394 3.394 0 0 1 .7-1.01c.171.355.512 1.671.472 6.439v.078c-1.348.143-3.375.214-5.257.256a15.553 15.553 0 0 1 3.257-4.538m-5.155-.85v.012c.009 0 .022.008.032.012a11.312 11.312 0 0 1 2.449 2.406 23.484 23.484 0 0 0-1.724 2.981l-1.3.021c-.906.013-1.627.024-2.01.041-.895.073-1.1-.431-1.366-1.03a4.047 4.047 0 0 0-.245-.5c-.162-.26-.336-.5-.508-.741a7.875 7.875 0 0 1-.676-1.075 16.667 16.667 0 0 1 1.355-3.4c1.16-.459 2.7.31 4 1.274m-.292-2.409c-.067.076-.122.168-.187.253a1.312 1.312 0 0 0-.96.167c-.133-.054-.267-.115-.4-.161a1.157 1.157 0 0 1 .747-.5.919.919 0 0 1 .8.243m.779-.644a1.943 1.943 0 0 0-1.726-.6 2.179 2.179 0 0 0-1.619 1.257 3.437 3.437 0 0 0-.426 0 11.6 11.6 0 0 1 .921-1.094 7.2 7.2 0 0 0 .385-.422c.314-.384.376-.354.608-.269a1.375 1.375 0 0 0 .749.116 1.99 1.99 0 0 0 .441-.144 1.253 1.253 0 0 1 .912-.13c.13.056.159.1.183.171a1.232 1.232 0 0 0 .734.819c.058.03.1.05.157.076a2.156 2.156 0 0 0-1.32.226m1.054 2.2a1.917 1.917 0 0 1-.967.028c-.1-.071-.2-.138-.3-.211a4.979 4.979 0 0 0 .678-.049c.388-.063.5-.08.595.227m.852-.51a1.27 1.27 0 0 0-1.569-.727 1.181 1.181 0 0 1 .856-.189 1.851 1.851 0 0 1 .934.489 1.348 1.348 0 0 1-.221.427m.908.473a4.215 4.215 0 0 1 .467 1.71c-.208.221-.43.474-.669.77a11.144 11.144 0 0 0-1.375-1.452 3.343 3.343 0 0 0 .461-.134 2.5 2.5 0 0 0 1.116-.893m1.45.611c-.034.05-.077.094-.111.143a4.992 4.992 0 0 0-.717-1.683 3.734 3.734 0 0 1 .828 1.54m-1.172-3.2a23.537 23.537 0 0 0-.613-.347 2.139 2.139 0 0 1 2.21-.425 2.806 2.806 0 0 1 1.233 1.87 2.316 2.316 0 0 0-1 .977 5.5 5.5 0 0 0-1.831-2.076m3.871 1.408a3.978 3.978 0 0 0-1.373-2.794 4.681 4.681 0 0 0-2.356-3.631 3.5 3.5 0 0 1-.585-.354c-.066-.043-.144-.086-.213-.132a1.946 1.946 0 0 1 .6 0 5.016 5.016 0 0 1 .71.259 3.673 3.673 0 0 0 1.1.352 3.969 3.969 0 0 0 .53-.009 1.545 1.545 0 0 1 .714.052 2.329 2.329 0 0 1 .841 1.1 2.47 2.47 0 0 0 .973 1.213c.487.232.607.364 1.392 1.344l.336.418c1.172 1.445.665 4.315-1.5 8.53-.151.183-.306.364-.461.553.033-4.749-.3-6.3-.713-6.9m-16.8 4.554a16.072 16.072 0 0 1-.713-5.407c.272-3.008 1.634-4.337 2.729-4.924a4.411 4.411 0 0 1 2.067-.524 3.731 3.731 0 0 1 1.136.168 3.9 3.9 0 0 1-1.33 1.055 5.605 5.605 0 0 0-2.677 2.819 19.2 19.2 0 0 0-1.214 6.812m2.147-6.424a4.611 4.611 0 0 1 2.258-2.336 4.214 4.214 0 0 0 1.8-1.684 12.707 12.707 0 0 1 1.879.064 1.782 1.782 0 0 0 1.02-.241 2.934 2.934 0 0 1 1.941-.31 2.245 2.245 0 0 1 .867.437 5.11 5.11 0 0 0 .74.444 3.508 3.508 0 0 1 1.64 2.175 3.75 3.75 0 0 0-2.987 1.038.237.237 0 0 1-.08-.125 1.166 1.166 0 0 0-.725-.8 2.092 2.092 0 0 0-1.711.113 1.745 1.745 0 0 1-.224.085.665.665 0 0 1-.232-.064c-.469-.18-1.029-.3-1.743.566-.092.115-.207.236-.34.377a11.422 11.422 0 0 0-2.44 3.773 3.106 3.106 0 0 0-.3-.243 1.013 1.013 0 0 0-1.181-.189c-.243.145-.506.473-.39 1.2a2.339 2.339 0 0 0 .518 1.137c.078.107.159.219.245.355a8.676 8.676 0 0 1-.824 4.114c-.129.336-.248.661-.354.983a19.2 19.2 0 0 1 .615-10.879m-11.33 7.426a2.114 2.114 0 0 1-.594-1.915 1.311 1.311 0 0 1 1.1-.737 5.869 5.869 0 0 1 4.891 2.05 9.373 9.373 0 0 1 2.2 4.074l.064.347a35.683 35.683 0 0 0 1.475 5.695 74.553 74.553 0 0 1-6.656-5.051 24.408 24.408 0 0 1-2.281-2.406 1.444 1.444 0 0 1 0-.657 1.914 1.914 0 0 0-.2-1.4m15.227 17.24a4.923 4.923 0 0 1-1.718.173 1.786 1.786 0 0 0 .187-.357 1.584 1.584 0 0 0 .078-.4c.477.214.962.4 1.453.583m-2.972-2.505a20.167 20.167 0 0 1-4.954-4.9c-.17-.232-.357-.481-.555-.741a50.87 50.87 0 0 0 3.747 2.468.029.029 0 0 0 .009.006c.632.375 1.267.726 1.891 1.036a27.412 27.412 0 0 0 6.664 2.631c.267.063.512.122.762.193.8.256 1.25.676 1.179 1.09a1.11 1.11 0 0 1-1.283.722 18.17 18.17 0 0 1-7.46-2.505M353.949 215a6.657 6.657 0 0 0 2.085-.55 1.564 1.564 0 0 1 1.292-.169c1.078.383 2.4 2.024 4.6 4.741l.167.211h.024a2.32 2.32 0 0 1 .762 1.582c.125.886.3 2.1 2.053 4.606 1.286 1.842 1.639 4.871.953 8.113-.693 3.257-2.272 5.971-4.12 7.08a23.324 23.324 0 0 0-2.137 1.482c-1.795 1.346-3.264 2.43-6.125 2 2.753-2.477 3.155-5.84 3.472-8.528a9.963 9.963 0 0 1 .814-3.608 12.01 12.01 0 0 0 1.534-4.466v-.006c.09-.195.179-.4.226-.516a2.59 2.59 0 0 0 .418-2.544 1.326 1.326 0 0 0-1.119-.85 2.1 2.1 0 0 0-1.567.765 3.688 3.688 0 0 0-.5-1.177 4.441 4.441 0 0 0-.285-4.6 10.392 10.392 0 0 0-3.559-3.567 6.41 6.41 0 0 0 1.016.006m18.755 9.279c-.8-.951-2.358-1.428-3.729-1.844a10.064 10.064 0 0 1-1.62-.578 4.078 4.078 0 0 1-1.46-2.124c-.108-.256-.211-.5-.318-.715-.559-1.127-2.174-.944-3.047-.847-2.275-2.821-3.559-4.382-4.875-4.846a2.512 2.512 0 0 0-2.008.184 5.73 5.73 0 0 1-1.794.483 12.309 12.309 0 0 1-3.456-.479 9.629 9.629 0 0 0-2.221-.355 1.855 1.855 0 0 0-1.6 1.088 11.791 11.791 0 0 0-2.888.069c-3.741-4.009-11.286-5.4-12.717-5.125-.744.143-1.446 1.1-2.253 2.215-.686.936-1.7 2.358-2.26 2.214-2.646-.687-6.6 4.328-7.277 6.9a7.484 7.484 0 0 0 2.113 7.934 5.077 5.077 0 0 1 1.03 1.357c-2.067.455-6.156 2.327-6.679 4.436l-.043.184.081.165a1.514 1.514 0 0 0 1.066.746 7.549 7.549 0 0 0 .29 3.391c.44 2 .981 4.477-.124 6.542-.6 1.116-.041 2.648.326 3.66.035.091.069.184.1.279-1.5-.026-2.879.131-3.165 1.142-.211.752.49 1.418 1.11 2a4.912 4.912 0 0 1 .533.55 2.5 2.5 0 0 1 .136.221 7.855 7.855 0 0 0 2.217 2.49 11.188 11.188 0 0 0 8.5 1.951c2.95-.679 5.168-2.38 7.516-4.181.2-.156.407-.314.614-.468.028 2.85.7 3.938 1.488 4.943a4.826 4.826 0 0 0 2.325 1.686 71.17 71.17 0 0 0 1.59 13.471 24.448 24.448 0 0 1-1.644-.824 5.823 5.823 0 0 0 .258-4.315c-.791-2.132-3.583-4.5-4-4.752a.663.663 0 0 0-.755-.043.547.547 0 0 0-.166.175c-2.892-1.675-3.107-1.652-3.323-1.619l-.355.071-.121.258a.052.052 0 0 1-.009.02c-.105-.052-.22-.1-.319-.152-1.14-.548-1.872-.863-2.38-.611a.781.781 0 0 0-.424.5.757.757 0 0 0-.021.182l-.242-.071c-1.215-.342-2.046-.55-2.522-.308a.78.78 0 0 0-.426.518.692.692 0 0 0-.015.2h-.043c-1.121-.137-2.516-.312-2.969.531-.508.947-.149 2.5.307 3.947a.578.578 0 0 0-.514.494 5.249 5.249 0 0 0 1.36 3.929.711.711 0 0 0-.351.867 4.971 4.971 0 0 0 2.43 2.615.543.543 0 0 0-.067.182 1.1 1.1 0 0 0 .4.966 4.226 4.226 0 0 0 3.367.915.8.8 0 0 0 .025.591c.237.568 1.014.6 3.065.377a.561.561 0 0 0 .058.243.7.7 0 0 0 .659.379 6.5 6.5 0 0 0 6.2-3.716 22.565 22.565 0 0 1 2.464 1.49c.508.334 1 .663 1.431.923a41.327 41.327 0 0 0 5.937 9.787.764.764 0 0 0 .678.47c.532 0 .849-.559 1.073-1.063.5-1.243.533-2.138.09-2.657-4.519-5.327-7.6-13.818-7.915-21.566 1.069 1.417 2.354 2.911 3.859 3.054a24.509 24.509 0 0 0 4.116.056c.555-.05.632.2.669.3a.989.989 0 0 0 .635.59 6.752 6.752 0 0 0 4.2-.542 1.263 1.263 0 0 1 .173.184 1.427 1.427 0 0 0 1.129.653 1.783 1.783 0 0 0 .189-.013c1-.132 1.231-1.023 1.383-1.61a3.881 3.881 0 0 1 .158-.52c.179-.409 1.749-.286 2.507-.22a11.058 11.058 0 0 0 1.19.049c1.317-.089 3.3-.988 3.372-2.661.022-.455.409-.607 1.494-.793a4.59 4.59 0 0 0 1.277-.347c.857-.453 1.277-1.823 1.277-4.189a6.426 6.426 0 0 1 .187-1.136 13.261 13.261 0 0 0 .26-5.2c1.829.591 2.821.723 3.088.021a3.138 3.138 0 0 0-.179-2.211 3.226 3.226 0 0 0-1.531-1.5 10.7 10.7 0 0 0 .1-3.2 13.04 13.04 0 0 0 2.179-2.887l.289-.459c2.015-3.2 2.948-5.205 3.019-6.512.136-2.529-2.753-7.36-3.775-8.571" transform="translate(-291.422 -193.92)" style="fill:#4e0e1b"/>
        <path data-name="パス 3697" d="M104.85 61.947a4.131 4.131 0 0 1 .6 3.091v.009a4.085 4.085 0 0 1-1.745 2.614 4.022 4.022 0 0 1-2.811.632 49.3 49.3 0 0 0 1.661-8.016 4.062 4.062 0 0 1 2.3 1.67m-2.389 9.7a4.135 4.135 0 0 1-.026 3.152v.007a4.093 4.093 0 0 1-2.231 2.21 4.036 4.036 0 0 1-2.86.056 49.316 49.316 0 0 0 3.165-7.541 4.063 4.063 0 0 1 1.956 2.116m-5.156 12.626a.028.028 0 0 0 0 .009 4.047 4.047 0 0 1-5.126 1.378c-.09-.108-.165-.223-.263-.32a49.749 49.749 0 0 0 4.523-6.629 4.1 4.1 0 0 1 .869 5.562m-5.043 4.755a4.106 4.106 0 0 1-1.2 2.913.011.011 0 0 1-.009 0 4.041 4.041 0 0 1-5.685.076 49.487 49.487 0 0 0 5.685-5.662c.121.08.248.137.374.2a4.1 4.1 0 0 1 .834 2.465m-7.721 7.18a4.1 4.1 0 0 1-1.742 2.613s-.009 0-.011.006a4.028 4.028 0 0 1-5.352-.765c-.043-.16-.081-.318-.14-.475a49.04 49.04 0 0 0 6.673-4.421 4.126 4.126 0 0 1 .573 3.043m-8.36 4.857a4.07 4.07 0 0 1-2.22 2.219.007.007 0 0 1-.006 0 4.046 4.046 0 0 1-5.218-2.029 48.306 48.306 0 0 0 7.52-3.135c.011.033.02.069.032.1l-.131.087c.073.111.168.2.248.306a4.09 4.09 0 0 1-.224 2.448m-9.763 3.718a4.045 4.045 0 0 1-2.616 1.734h-.007a4.039 4.039 0 0 1-3.062-.635 4.1 4.1 0 0 1-1.679-2.489c0-.032.011-.064.011-.1a48.515 48.515 0 0 0 7.991-1.54 4.1 4.1 0 0 1-.639 3.028m-9.7 1.408a4.054 4.054 0 0 1-2.89 1.205h-.01a4.09 4.09 0 0 1-4.077-4.022c1.386.116 2.783.192 4.2.192 1.339 0 2.66-.07 3.971-.176a.613.613 0 0 1-.007.066h-.019a.353.353 0 0 1 .015.051 4.112 4.112 0 0 1-1.177 2.68m-10.46-.587a4.024 4.024 0 0 1-3.071.6h-.009a4.039 4.039 0 0 1-2.6-1.759 4.1 4.1 0 0 1-.617-2.936 48.542 48.542 0 0 0 7.981 1.673 4.068 4.068 0 0 1-1.689 2.419m-9.634-2.407a4.027 4.027 0 0 1-3.128-.024H33.5a4.1 4.1 0 0 1-2.221-5.225 48.435 48.435 0 0 0 7.511 3.192 4.062 4.062 0 0 1-2.152 2.06m-9.472-4.53A4.035 4.035 0 0 1 24.1 98v-.007a4.088 4.088 0 0 1-1.369-5.159c.121-.1.252-.19.363-.3l-.129-.131a49.52 49.52 0 0 0 6.723 4.652 4.037 4.037 0 0 1-2.522 1.6m-7.786-5.729a4.055 4.055 0 0 1-2.89-1.209h-.006a4.131 4.131 0 0 1-.025-5.788 49.451 49.451 0 0 0 5.613 5.712c-.095.143-.163.3-.245.451a4.018 4.018 0 0 1-2.446.839m-7.114-7.773a4.072 4.072 0 0 1-2.6-1.76v-.006A4.091 4.091 0 0 1 10.419 78c.177-.05.355-.091.528-.156a49.7 49.7 0 0 0 5.121 7.629l-.36-.358-.37-.564a4.057 4.057 0 0 1-3.077.605M5.233 74.493a.007.007 0 0 1 0-.006 4.127 4.127 0 0 1 .015-3.151 4.059 4.059 0 0 1 2.033-2.117 49.392 49.392 0 0 0 3.129 7.574c-.05.018-.1.03-.149.045l-.086-.13c-.108.071-.2.167-.3.245a4.025 4.025 0 0 1-2.436-.221 4.081 4.081 0 0 1-2.2-2.239m1.644-6.631c.019.078.041.152.062.228a.127.127 0 0 1-.019.01zm-4.853-3.6v-.006a4.114 4.114 0 0 1 .63-3.089 4.062 4.062 0 0 1 2.467-1.688c.038 0 .077.011.116.013a49.216 49.216 0 0 0 1.546 8.042 4.023 4.023 0 0 1-3.043-.634 4.091 4.091 0 0 1-1.721-2.633m.325-7.138a4.1 4.1 0 0 1-1.2-2.911v-.009a4.11 4.11 0 0 1 1.2-2.913A4.051 4.051 0 0 1 5.136 50.1c-.109 1.357-.183 2.727-.183 4.111s.074 2.757.183 4.111c-.025 0-.049-.006-.075-.006v-.018c-.015 0-.03.009-.043.011a4.028 4.028 0 0 1-2.664-1.183m.579-10.535a4.108 4.108 0 0 1-.6-3.09.015.015 0 0 1 0-.011 4.058 4.058 0 0 1 4.628-3.237 49.517 49.517 0 0 0-1.642 8.038 4.052 4.052 0 0 1-2.391-1.7m2.391-9.7a4.116 4.116 0 0 1 .025-3.152.022.022 0 0 1 0-.006 4.047 4.047 0 0 1 5.139-2.252 48.977 48.977 0 0 0-3.153 7.562 4.05 4.05 0 0 1-2.014-2.152m5.145-12.624s0-.006.006-.009a4.032 4.032 0 0 1 5.133-1.373c.093.11.171.226.271.33a49.857 49.857 0 0 0-4.5 6.64 4.108 4.108 0 0 1-.9-5.587m5.046-4.756a4.1 4.1 0 0 1 1.2-2.911.007.007 0 0 1 .006-.006 4.039 4.039 0 0 1 5.676-.083 49.519 49.519 0 0 0-5.668 5.676c-.125-.083-.252-.141-.384-.211a4.108 4.108 0 0 1-.828-2.466m7.717-7.163a4.091 4.091 0 0 1 1.745-2.615h.007a4.03 4.03 0 0 1 5.349.761c.043.147.078.292.131.437a49.06 49.06 0 0 0-6.671 4.445 4.122 4.122 0 0 1-.561-3.024m8.36-4.861a4.052 4.052 0 0 1 2.214-2.22h.006A4.041 4.041 0 0 1 39 7.229a48.548 48.548 0 0 0-7.5 3.153c0-.019-.009-.034-.015-.054l.129-.085c-.073-.108-.163-.2-.243-.3a4.1 4.1 0 0 1 .221-2.453m9.763-3.719a4.056 4.056 0 0 1 2.612-1.732.021.021 0 0 1 .009 0 4.051 4.051 0 0 1 3.066.637 4.118 4.118 0 0 1 1.677 2.483A48.546 48.546 0 0 0 40.7 6.718a4.1 4.1 0 0 1 .645-2.949m9.705-1.4a4.04 4.04 0 0 1 2.888-1.2h.01a4.058 4.058 0 0 1 2.89 1.2 4.115 4.115 0 0 1 1.182 2.689c-1.345-.113-2.7-.184-4.076-.184s-2.724.071-4.067.184v-.009a4.075 4.075 0 0 1 1.178-2.685m10.458.586a4.035 4.035 0 0 1 3.068-.608h.009a4.052 4.052 0 0 1 2.6 1.758 4.1 4.1 0 0 1 .635 2.8 48.36 48.36 0 0 0-7.96-1.653 4.071 4.071 0 0 1 1.653-2.3m9.636 2.4a4.059 4.059 0 0 1 3.128.028h.009a4.082 4.082 0 0 1 2.262 5.076 48.685 48.685 0 0 0-7.484-3.173 4.07 4.07 0 0 1 2.086-1.935m9.47 4.533a4.031 4.031 0 0 1 3.062.652h.009a4.1 4.1 0 0 1 1.366 5.162c-.086.071-.179.138-.263.214a48.88 48.88 0 0 0-6.6-4.548 4.047 4.047 0 0 1 2.424-1.485m7.787 5.733a4.048 4.048 0 0 1 2.889 1.2v.007a4.105 4.105 0 0 1 .13 5.662 49.383 49.383 0 0 0-5.641-5.727c.063-.1.112-.208.17-.312a4.029 4.029 0 0 1 2.447-.834m7.11 7.771a4.064 4.064 0 0 1 2.6 1.759 4.093 4.093 0 0 1-.757 5.392c-.127.036-.252.069-.376.112a49.528 49.528 0 0 0-4.407-6.735 4.023 4.023 0 0 1 2.939-.533m7.03 10.658v.007a4.131 4.131 0 0 1-.01 3.151 4.077 4.077 0 0 1-1.907 2.05 49.428 49.428 0 0 0-3.106-7.532l.084.128c.109-.074.2-.165.3-.245a4.017 4.017 0 0 1 2.438.223 4.071 4.071 0 0 1 2.2 2.239m-48.6 68.336a48.172 48.172 0 1 1 47.833-48.171 48.056 48.056 0 0 1-47.833 48.171m51.807-58.109v.006a4.122 4.122 0 0 1-.63 3.086 4.069 4.069 0 0 1-2.457 1.686 49.278 49.278 0 0 0-1.535-8.064 4.02 4.02 0 0 1 2.9.653 4.068 4.068 0 0 1 1.717 2.633m.567 11.635a4.18 4.18 0 0 1-.887 1.333 4.042 4.042 0 0 1-2.685 1.185 49.75 49.75 0 0 0 .192-4.215c0-1.344-.069-2.67-.177-3.985a4.1 4.1 0 0 1 2.666 1.187 4.188 4.188 0 0 1 .454.555 4.123 4.123 0 0 1 .743 2.353v.009a4.15 4.15 0 0 1-.31 1.578m1.431-1.869a5.235 5.235 0 0 0-1.5-3.446 5.448 5.448 0 0 0-.559-.462 5.287 5.287 0 0 0-1.085-.656 5.28 5.28 0 0 0 2.283-5.409v-.012a5.254 5.254 0 0 0-2.2-3.374 5.158 5.158 0 0 0-2.741-.9 5.23 5.23 0 0 0 1.674-6.17V33.6a5.151 5.151 0 0 0-4.54-3.253 5.328 5.328 0 0 0 .774-1.876 5.27 5.27 0 0 0-.774-3.964v-.006a5.187 5.187 0 0 0-6.209-2.001 5.273 5.273 0 0 0-.746-6.484s-.007 0-.007-.007a5.149 5.149 0 0 0-5.577-1.185A5.243 5.243 0 0 0 84.34 9.59h-.006a5.188 5.188 0 0 0-6.5.468 5.247 5.247 0 0 0-3.1-5.733h-.009a5.19 5.19 0 0 0-5.786 1.168 5.253 5.253 0 0 0-.794-2.02 5.183 5.183 0 0 0-3.325-2.266h-.01a5.173 5.173 0 0 0-3.936.776 5.243 5.243 0 0 0-1.82 2.137A5.229 5.229 0 0 0 53.953 0h-.01a5.181 5.181 0 0 0-3.7 1.545A5.3 5.3 0 0 0 49.131 3.2a5.243 5.243 0 0 0-1.448-1.485A5.174 5.174 0 0 0 43.757.9h-.011A5.2 5.2 0 0 0 40.4 3.116a5.314 5.314 0 0 0-.89 2.761 5.155 5.155 0 0 0-6.125-1.686h-.008a5.182 5.182 0 0 0-3.228 4.57 5.209 5.209 0 0 0-5.8 0h-.009a5.228 5.228 0 0 0-2.238 3.35 5.284 5.284 0 0 0 .241 2.9 5.174 5.174 0 0 0-6.438.755h-.006a5.265 5.265 0 0 0-1.187 5.634 5.159 5.159 0 0 0-5.19 2.2s0 .006-.007.006a5.282 5.282 0 0 0 .465 6.542 5.19 5.19 0 0 0-5.691 3.125v.012a5.277 5.277 0 0 0 1.162 5.827A5.237 5.237 0 0 0 1.2 43.263a.018.018 0 0 1 0 .011 5.276 5.276 0 0 0 .77 3.962 5.2 5.2 0 0 0 2.124 1.833 5.189 5.189 0 0 0-2.558 1.408A5.272 5.272 0 0 0 0 54.207v.011a5.255 5.255 0 0 0 3.176 4.846 5.282 5.282 0 0 0-2.285 5.411.014.014 0 0 1 0 .009 5.215 5.215 0 0 0 4.943 4.273 5.207 5.207 0 0 0-1.657 2.131 5.274 5.274 0 0 0-.017 4.037.016.016 0 0 1 0 .009 5.146 5.146 0 0 0 4.54 3.251 5.307 5.307 0 0 0 0 5.841s.006 0 .006.009a5.185 5.185 0 0 0 6.208 2.011 5.265 5.265 0 0 0 .751 6.484v.006a5.164 5.164 0 0 0 5.58 1.188 5.309 5.309 0 0 0 0 1.848 5.232 5.232 0 0 0 2.188 3.382s.009 0 .009.006a5.191 5.191 0 0 0 6.494-.469 5.241 5.241 0 0 0 3.1 5.732h.01a5.2 5.2 0 0 0 5.786-1.172 5.317 5.317 0 0 0 .792 2.024 5.2 5.2 0 0 0 3.329 2.253h.006a5.155 5.155 0 0 0 3.937-.774 5.219 5.219 0 0 0 1.819-2.133 5.248 5.248 0 0 0 1.4 2.57 5.174 5.174 0 0 0 3.7 1.545h.01a5.226 5.226 0 0 0 4.812-3.2 5.239 5.239 0 0 0 5.373 2.3h.009a5.187 5.187 0 0 0 3.353-2.217 5.274 5.274 0 0 0 .89-2.76 5.15 5.15 0 0 0 6.125 1.682h.01a5.26 5.26 0 0 0 2.849-2.84 5.331 5.331 0 0 0 .376-1.728 5.227 5.227 0 0 0 5.8 0s.009 0 .009-.007a5.268 5.268 0 0 0 2-6.253 5.168 5.168 0 0 0 6.44-.754.015.015 0 0 1 .009 0 5.27 5.27 0 0 0 1.534-3.734 5.352 5.352 0 0 0-.357-1.885 5.141 5.141 0 0 0 5.195-2.205v-.007a5.271 5.271 0 0 0-.465-6.54 5.194 5.194 0 0 0 5.692-3.127v-.009a5.274 5.274 0 0 0-1.164-5.83 5.225 5.225 0 0 0 4.248-4.148v-.009a5.245 5.245 0 0 0-2.89-5.8 5.2 5.2 0 0 0 2.558-1.406 5.262 5.262 0 0 0 1.53-3.729v-.011c0-.1-.022-.188-.028-.283" style="fill:#4e0e1b"/>
        <path data-name="パス 3698" d="M62.506 1590.82h-1.448c.039.716.106 1.411.106 2.13v7.459h1.342v-4.909c0-3.509 2.363-3.7 2.685-3.7 1.851 0 2.406 1.07 2.406 3.012v5.6h1.333v-5.1c0-1.785.7-3.509 2.69-3.509 1.847 0 2.406 1.07 2.406 3.012v5.6h1.339v-6.084c0-2.383-1.162-3.753-3.585-3.753a3.475 3.475 0 0 0-3.131 1.988 3.014 3.014 0 0 0-3.03-1.988 3.649 3.649 0 0 0-3.072 1.7h-.041m-47.1-21.564c0 3.973-2.171 7.234-6.753 7.234-2.517 0-5.226-1.151-5.226-4.123 0-4.5 7.182-4.746 10.367-4.746h1.612zm.483 9.543h3.043a40.421 40.421 0 0 1-.37-5.046v-10.017c0-5.455-3.757-7.948-8.134-7.948-.521 0-.975.065-1.461.1v2.839c.248-.02.487-.066.738-.066 3.867 0 5.7 1.915 5.7 5.793v.579h-1.556c-5.328 0-13.849.479-13.849 7.768 0 4.348 3.718 6.562 7.669 6.562 3.565 0 6.04-1.247 7.843-4.219h.1a23.3 23.3 0 0 0 .278 3.65m8.192 5.79.241-1.227a5.979 5.979 0 0 0-1.157-.142c-1.928 0-3.191.983-3.191 3.525v2.625h-2.012v1.227h2.014v8.362h1.345v-8.362h2.26v-1.227h-2.26v-2.464c0-1.39.245-2.459 1.726-2.459a4.633 4.633 0 0 1 1.038.142m4.5 8.839a3.362 3.362 0 0 1 3.336-3.078 2.885 2.885 0 0 1 3.094 3.078zm-1.463.734a4.855 4.855 0 0 0 4.923 5.045c.071 0 .14-.006.211-.01v-1.236c-.071 0-.14.014-.211.014a3.587 3.587 0 0 1-3.5-3.442h7.934v-.619a4.479 4.479 0 0 0-4.559-4.792 4.824 4.824 0 0 0-4.8 5.041m23.95-15.363-9.326-11.991 7.762-10.445h-3.901l-5.9 8.386-6.174-8.386h-4.3l8.093 10.445-9.188 11.991h4.007l7.172-9.827 7.478 9.827zm3.157 20.16h1.342v-6.084c0-2.383-1.157-3.753-3.578-3.753a3.476 3.476 0 0 0-3.137 1.988 3.015 3.015 0 0 0-3.032-1.988 3.658 3.658 0 0 0-3.071 1.7h-.045v-1.45h-1.44c.048.716.1 1.411.1 2.13v7.459h1.339v-4.915c0-3.509 2.356-3.7 2.69-3.7 1.85 0 2.4 1.07 2.4 3.012v5.6h1.343v-5.1c0-1.785.691-3.509 2.683-3.509 1.853 0 2.4 1.07 2.4 3.012zm8.273-33.108c0-3.7 3.71-7.185 7.8-7.185 4.532 0 7.25 2.921 7.25 7.185zm-.088 2.583h18.56v-1.436c0-6.137-3.909-11.158-10.669-11.209-6.326 0-11.228 5.032-11.228 11.788s4.9 11.792 11.521 11.792c.159 0 .316-.02.486-.02v-2.893c-.17.011-.323.035-.486.035-4.422 0-7.812-3.554-8.184-8.057m19.511 24.994a3.361 3.361 0 0 1 3.333-3.078 2.886 2.886 0 0 1 3.1 3.078zm-.043 1.1h7.93v-.619a4.479 4.479 0 0 0-4.554-4.792 5.046 5.046 0 0 0 .121 10.085c.071 0 .142-.006.211-.01v-1.236c-.069 0-.136.014-.211.014a3.593 3.593 0 0 1-3.5-3.442m22.336-32.855 2.8-1.866c-1.429-2.921-4.325-4.024-7.424-4.024-4.19 0-8.235 2.1-8.235 6.756 0 4.264 4.194 5.514 5.715 5.889l3.043.723c2.332.573 4.235 1.341 4.235 3.6 0 2.588-2.669 3.739-5.233 3.739a6.729 6.729 0 0 1-5.853-3.36l-2.711 1.874a9.669 9.669 0 0 0 8.564 4.363c4.34 0 8.652-2.016 8.652-6.906 0-3.16-2.337-5.419-5.414-6.137l-3.2-.758c-2.9-.679-4.37-1.441-4.37-3.55 0-2.4 2.43-3.351 4.613-3.351a5.193 5.193 0 0 1 4.816 3.012" transform="translate(0 -1443.831)" style="fill:#4e0e1b"/>
    </g>
</svg>
