<svg id="rogo_girl" class="pc-only-view" xmlns="http://www.w3.org/2000/svg" viewBox="0 0 314.48 121.03"><path class="b" d="M44.6 56.77h14.68v10.04c0 3.51-.59 6.56-1.77 9.14-1.18 2.59-2.69 4.72-4.55 6.39-1.86 1.68-3.97 2.93-6.31 3.77-2.35.84-4.71 1.26-7.05 1.26-3.87 0-7.02-.42-9.45-1.26-2.43-.83-4.78-2.33-7.05-4.48-2.05-1.91-3.72-4.22-5.01-6.93-1.29-2.71-2.29-5.66-3.01-8.84-.72-3.19-1.23-6.58-1.54-10.16-.3-3.59-.45-7.17-.45-10.76 0-5.26.32-10.48.97-15.66.64-5.18 1.94-9.82 3.87-13.92 1.93-4.1 4.63-7.41 8.08-9.92s8.02-3.77 13.71-3.77c4.78 0 8.7.88 11.77 2.63 3.07 1.76 5.53 3.91 7.4 6.45 1.86 2.55 3.22 5.22 4.09 8.01.87 2.79 1.46 5.22 1.77 7.29H66V2.15h-1.71c-.61.8-1.23 1.42-1.88 1.85-.64.44-1.73.66-3.24.66-1.36 0-2.6-.24-3.7-.72l-3.69-1.61c-1.37-.6-2.98-1.14-4.84-1.62-1.86-.48-4.23-.72-7.11-.72-5.61 0-10.62 1.12-15.02 3.35s-8.3 5.14-11.72 8.72c-.99 1.04-2.22 2.47-3.7 4.3-1.48 1.83-2.92 4.11-4.32 6.81-1.4 2.71-2.6 5.88-3.58 9.5C.5 36.29.01 40.38.01 44.92c0 6.77 1.25 12.87 3.76 18.29 2.5 5.41 5.65 10.12 9.44 14.1 3.87 4.06 7.89 7.03 12.06 8.9 4.17 1.87 8.95 2.81 14.34 2.81 3.56 0 6.6-.38 9.1-1.14 2.5-.76 4.68-1.61 6.54-2.57 1.86-.95 3.49-1.81 4.89-2.57 1.41-.75 2.79-1.13 4.15-1.13 1.14 0 1.97.16 2.5.48.53.32 1.21.92 2.05 1.79h1.36V56.75h9.1v-1.68H44.6v1.68zM98.31 5.28h12.18V84.1H98.31v1.61h35.32V84.1h-12.17V5.28h12.17V3.67H98.31v1.61zM224.72 84.1c-1.03.38-2.02.57-2.97.57-2.12 0-3.66-.81-4.61-2.42-.95-1.61-1.65-3.41-2.09-5.41-.29-1.3-.49-2.92-.6-4.84l-.33-5.99c-.11-2.08-.26-4.09-.44-6.05-.19-1.96-.49-3.71-.93-5.25-.73-2.61-1.97-4.74-3.73-6.39-1.75-1.65-3.67-2.98-5.76-3.98-2.08-1-4.13-1.71-6.14-2.13-2.01-.42-3.6-.71-4.77-.87v-.23c4.24-.54 7.64-1.6 10.2-3.17 2.56-1.57 4.51-3.3 5.87-5.18 1.35-1.88 2.23-3.73 2.63-5.53.4-1.8.6-3.28.6-4.44 0-2.31-.53-4.76-1.59-7.38-1.06-2.61-2.87-4.95-5.43-7.03-2.85-2.38-5.92-3.82-9.21-4.32-3.29-.5-7.1-.75-11.41-.75-.88 0-1.75.02-2.63.06-.87.04-1.75.06-2.63.06-.88.08-1.76.14-2.63.17-.87.04-1.75.05-2.63.05h-20.84v1.62h12.17V84.1h-12.17v1.61h35.32V84.1h-12.18V42.5h10.97c1.24 0 2.7.1 4.39.29 1.68.19 3.31.79 4.88 1.78 1.57 1 2.94 2.58 4.11 4.73 1.17 2.15 1.9 5.14 2.19 8.98l.77 10.48c.22 2.92.61 5.47 1.15 7.67.55 2.19 1.41 4.03 2.58 5.53 1.17 1.5 2.72 2.63 4.66 3.39 1.94.77 4.36 1.15 7.29 1.15 1.53 0 2.83-.09 3.89-.29 1.06-.19 1.96-.44 2.69-.75s1.34-.64 1.81-.98c.47-.35.9-.67 1.26-.98l-.99-1.27c-.8.85-1.72 1.46-2.74 1.85zm-38.83-43.21H175.8V5.29c.95-.15 2.1-.25 3.45-.29 1.36-.04 2.69-.06 4.01-.06 1.9 0 3.82.19 5.76.58 1.94.38 3.69 1.19 5.27 2.42 1.57 1.23 2.85 3.05 3.84 5.47.99 2.42 1.48 5.63 1.48 9.62 0 3.53-.33 6.45-.99 8.75-.66 2.3-1.59 4.13-2.8 5.48-1.21 1.34-2.65 2.29-4.33 2.82-1.68.54-3.54.81-5.59.81zM313.28 60.48c-1.68 7.3-4.35 13.06-8.01 17.28-3.66 4.23-8.7 6.34-15.14 6.34h-19.52V5.28h12.18V3.67h-35.32v1.61h12.18V84.1h-12.18v1.61h67.02V60.48h-1.21zM20.56 106.86c-.47-.72-1.06-1.36-1.8-1.91-.73-.55-1.6-.99-2.6-1.32-.34-.11-.67-.21-.97-.28-.3-.07-.62-.13-.96-.17-.34-.04-.7-.07-1.08-.09-.38-.02-.82-.02-1.32-.02l-.69.01-.69.01-.69.04-.69.01H4.5v.34h2.73v16.83H4.5v.34h4.18l.78.01c.27 0 .54.02.82.04l.84.04.79.01c.57 0 1.08 0 1.53-.02.44-.02.85-.05 1.22-.1s.73-.13 1.08-.22c.35-.1.73-.24 1.12-.42.7-.3 1.36-.68 1.98-1.17.61-.49 1.15-1.06 1.61-1.72.46-.67.82-1.43 1.08-2.29.27-.86.39-1.83.39-2.92 0-.93-.11-1.83-.33-2.68-.22-.85-.56-1.64-1.03-2.36zm-1.77 8.18c-.21.93-.57 1.83-1.1 2.72-.34.57-.74 1.04-1.17 1.39-.44.35-.9.62-1.4.81-.5.19-1.02.31-1.57.37s-1.1.09-1.66.09c-.44 0-.85 0-1.22-.02l-.97-.07V103.5l.97-.05c.34-.02.71-.02 1.12-.02 1.38 0 2.54.21 3.47.62.94.41 1.69.98 2.25 1.73.57.74.97 1.64 1.22 2.7.24 1.06.37 2.23.37 3.53 0 1.1-.1 2.11-.31 3.04zM48.1 120.32c-.23.08-.45.12-.67.12-.47 0-.82-.17-1.03-.52-.21-.34-.37-.73-.47-1.15-.06-.28-.11-.62-.13-1.03l-.08-1.28c-.02-.44-.06-.87-.1-1.29-.04-.42-.11-.79-.21-1.12-.17-.55-.44-1.01-.84-1.36s-.82-.63-1.29-.85c-.47-.21-.93-.36-1.38-.45-.45-.09-.81-.15-1.07-.18v-.05c.95-.11 1.71-.34 2.29-.68.57-.33 1.01-.7 1.32-1.11.31-.4.5-.8.59-1.18.09-.38.13-.7.13-.95 0-.49-.12-1.02-.36-1.57-.24-.56-.64-1.06-1.21-1.5-.64-.51-1.33-.82-2.07-.92-.74-.11-1.59-.16-2.56-.16-.19 0-.39 0-.59.02h-.59l-.59.04-.59.01h-4.67v.34h2.73v16.83h-2.73v.34h7.92v-.34h-2.73v-8.88h2.46c.28 0 .61.02.99.06.38.04.74.17 1.09.38.35.21.66.55.92 1 .26.46.43 1.1.49 1.92l.17 2.24c.04.62.13 1.17.26 1.64.12.47.31.86.57 1.18.27.32.61.56 1.05.73.43.16.98.25 1.64.25.34 0 .64-.02.88-.06.23-.04.44-.09.6-.16.16-.06.3-.14.4-.21l.28-.21-.22-.28c-.18.18-.39.32-.61.4zm-8.71-9.23h-2.26v-7.6c.21-.03.47-.05.78-.06l.9-.01c.42 0 .85.04 1.29.12.44.09.83.26 1.18.52s.64.65.86 1.17c.22.51.33 1.2.33 2.05 0 .75-.08 1.38-.22 1.87-.15.49-.36.88-.63 1.17-.27.28-.59.49-.97.6-.38.12-.8.17-1.26.17zM71.47 116.7c-.18.57-.46 1.13-.83 1.66-.38.54-.87 1-1.46 1.38-.6.39-1.35.58-2.25.58h-4.65v-8.88h1.99c.59 0 1.07.11 1.44.31.37.2.66.48.88.83.22.34.39.74.52 1.18l.36 1.38h.27v-7.66h-.27c-.18.74-.36 1.34-.55 1.81-.19.47-.42.84-.69 1.11-.28.27-.6.45-.98.55-.38.1-.84.15-1.38.15h-1.6v-7.6h4.08c.67 0 1.25.09 1.72.25.48.17.89.41 1.23.75.34.34.64.75.89 1.23.24.49.48 1.04.69 1.69h.27v-4.26H57.08v.34h2.73v16.83h-2.73v.34h15.01v-5.39h-.28c-.04.37-.16.85-.34 1.42zM93.75 111.85c-.45-.33-.92-.57-1.39-.74-.48-.16-.87-.3-1.18-.39l-2.98-.94c-.43-.13-.85-.28-1.27-.45-.42-.17-.8-.39-1.13-.64-.34-.25-.61-.57-.82-.94-.21-.37-.32-.81-.32-1.34 0-.66.14-1.2.41-1.63.27-.43.61-.77 1.02-1.03.41-.26.85-.45 1.33-.55.47-.11.91-.16 1.3-.16.7 0 1.33.13 1.86.38.53.26.99.59 1.37 1.01.38.42.68.9.92 1.45.24.55.41 1.12.51 1.71h.29v-4.45h-.34c-.13.23-.23.37-.31.43-.08.06-.22.09-.43.09-.23 0-.46-.05-.68-.15l-.75-.33c-.28-.13-.61-.24-1-.33-.38-.1-.86-.15-1.44-.15-.79 0-1.51.13-2.18.39-.66.26-1.23.62-1.71 1.09-.48.46-.85 1-1.11 1.64-.27.63-.39 1.32-.39 2.05 0 1.13.34 2.04 1.02 2.71.68.67 1.69 1.21 3.01 1.62l2.83.86c.34.1.71.24 1.1.42.38.18.74.41 1.07.7.33.28.6.64.81 1.04.21.41.32.9.32 1.47 0 .39-.06.83-.2 1.3-.13.47-.36.9-.69 1.3s-.77.73-1.33 1c-.56.26-1.27.39-2.14.39-.31 0-.64 0-1-.02-.35-.02-.72-.07-1.11-.17-.39-.09-.77-.25-1.15-.47-.38-.21-.74-.51-1.08-.91-.34-.39-.66-.89-.95-1.5-.29-.6-.52-1.35-.7-2.24h-.27v5.29h.37c.07-.17.15-.3.23-.39.09-.1.26-.15.5-.15.28 0 .61.07.98.2.38.13.73.25 1.06.34.28.09.53.14.76.18l.69.11c.23.03.47.05.74.06l.91.01c.97 0 1.84-.16 2.61-.48.77-.32 1.43-.74 1.97-1.28.54-.53.95-1.15 1.24-1.84.29-.7.43-1.43.43-2.2 0-.83-.16-1.53-.48-2.07-.32-.54-.7-.98-1.16-1.31zM117.54 111.85c-.45-.33-.92-.57-1.39-.74-.48-.16-.87-.3-1.18-.39l-2.98-.94c-.43-.13-.85-.28-1.27-.45-.42-.17-.8-.39-1.13-.64-.34-.25-.61-.57-.82-.94-.21-.37-.32-.81-.32-1.34 0-.66.14-1.2.41-1.63.27-.43.61-.77 1.02-1.03.41-.26.85-.45 1.33-.55.47-.11.91-.16 1.3-.16.7 0 1.33.13 1.86.38.54.26.99.59 1.37 1.01.38.42.68.9.92 1.45.24.55.41 1.12.51 1.71h.29v-4.45h-.34c-.13.23-.23.37-.31.43-.08.06-.22.09-.43.09-.23 0-.46-.05-.68-.15l-.75-.33c-.28-.13-.61-.24-1-.33-.38-.1-.86-.15-1.44-.15-.79 0-1.51.13-2.18.39-.66.26-1.24.62-1.71 1.09-.48.46-.85 1-1.11 1.64-.26.63-.39 1.32-.39 2.05 0 1.13.34 2.04 1.02 2.71.68.67 1.69 1.21 3.01 1.62l2.83.86c.34.1.71.24 1.1.42.38.18.74.41 1.07.7.33.28.6.64.81 1.04.22.41.32.9.32 1.47 0 .39-.06.83-.2 1.3-.13.47-.36.9-.69 1.3s-.77.73-1.33 1c-.56.26-1.27.39-2.14.39-.31 0-.64 0-1-.02-.35-.02-.72-.07-1.11-.17-.39-.09-.77-.25-1.15-.47-.38-.21-.74-.51-1.08-.91-.34-.39-.66-.89-.95-1.5-.29-.6-.52-1.35-.7-2.24h-.27v5.29h.37c.07-.17.14-.3.23-.39.09-.1.26-.15.51-.15.28 0 .61.07.98.2.38.13.73.25 1.06.34.28.09.53.14.76.18l.69.11c.23.03.47.05.74.06l.91.01c.97 0 1.84-.16 2.61-.48.77-.32 1.43-.74 1.97-1.28.54-.53.95-1.15 1.24-1.84.29-.7.43-1.43.43-2.2 0-.83-.16-1.53-.48-2.07-.32-.54-.71-.98-1.16-1.31zM143.59 103.49h2.73v16.83h-2.73v.34h7.92v-.34h-2.73v-8.51h1.99c.59 0 1.07.1 1.44.3.37.21.66.48.88.83.22.34.39.74.52 1.18l.36 1.38h.27v-7.65h-.27c-.18.74-.36 1.34-.55 1.81-.19.47-.42.84-.69 1.11-.28.27-.6.45-.98.55-.38.1-.84.15-1.38.15h-1.6v-7.98h4.08c.67 0 1.25.09 1.72.25.48.17.89.41 1.23.75.34.34.64.75.89 1.23.24.49.48 1.04.69 1.69h.27v-4.26h-14.07v.34zM182.78 105.34c-.81-.82-1.72-1.47-2.75-1.93-1.02-.47-2.08-.71-3.16-.71-1.02 0-2.03.24-3.05.71-1.02.46-1.93 1.11-2.75 1.93-.81.81-1.48 1.79-1.99 2.9-.51 1.12-.77 2.33-.77 3.64 0 1.18.21 2.32.64 3.43.43 1.11 1.02 2.08 1.78 2.93.76.85 1.67 1.52 2.72 2.03 1.05.51 2.19.76 3.42.76s2.31-.26 3.36-.79c1.04-.53 1.95-1.21 2.72-2.07.77-.85 1.38-1.83 1.82-2.93.44-1.1.66-2.22.66-3.37 0-1.31-.24-2.53-.72-3.64-.49-1.11-1.13-2.09-1.93-2.9zm-.47 10.41c-.19 1.1-.52 2.02-.98 2.75-.46.74-1.05 1.29-1.79 1.65-.73.36-1.62.54-2.67.54s-1.96-.18-2.68-.54c-.72-.36-1.31-.91-1.77-1.65-.46-.74-.79-1.66-.99-2.75-.19-1.1-.29-2.39-.29-3.86 0-1.13.07-2.23.22-3.28.15-1.06.43-2 .85-2.83.42-.83 1-1.49 1.75-1.98s1.72-.74 2.92-.74 2.17.25 2.92.74 1.33 1.15 1.75 1.98c.42.83.7 1.77.85 2.83.15 1.06.22 2.15.22 3.28 0 1.47-.1 2.77-.3 3.86zM211.39 120.32c-.23.08-.45.12-.66.12-.48 0-.82-.17-1.04-.52-.21-.34-.37-.73-.46-1.15-.07-.28-.11-.62-.14-1.03l-.08-1.28c-.02-.44-.06-.87-.1-1.29-.04-.42-.11-.79-.21-1.12-.17-.55-.45-1.01-.84-1.36-.39-.35-.83-.63-1.29-.85-.47-.21-.93-.36-1.38-.45-.45-.09-.81-.15-1.07-.18v-.05c.95-.11 1.71-.34 2.29-.68.58-.33 1.01-.7 1.32-1.11.3-.4.5-.8.59-1.18.09-.38.14-.7.14-.95 0-.49-.12-1.02-.36-1.57-.24-.56-.65-1.06-1.22-1.5-.64-.51-1.33-.82-2.07-.92-.74-.11-1.59-.16-2.56-.16-.19 0-.39 0-.59.02h-.59l-.59.04-.59.01h-4.68v.34h2.73v16.83h-2.73v.34h7.92v-.34h-2.73v-8.88h2.46c.28 0 .61.02.98.06.38.04.74.17 1.09.38.35.21.66.55.93 1 .26.46.42 1.1.49 1.92l.17 2.24c.05.62.13 1.17.26 1.64.12.47.31.86.58 1.18.26.32.61.56 1.05.73.44.16.98.25 1.63.25.34 0 .64-.02.87-.06.24-.04.44-.09.6-.16.17-.06.3-.14.41-.21l.29-.21-.22-.28c-.18.18-.39.32-.61.4zm-8.71-9.23h-2.26v-7.6c.21-.03.47-.05.78-.06l.9-.01c.43 0 .85.04 1.29.12.44.09.83.26 1.18.52s.64.65.86 1.17c.22.51.33 1.2.33 2.05 0 .75-.07 1.38-.22 1.87-.15.49-.36.88-.63 1.17-.27.28-.59.49-.97.6-.38.12-.8.17-1.26.17zM245.27 103.49H248v13.06h-.05l-8.31-13.41h-5.27v.35h2.73v16.83h-2.73v.34h5.83v-.34h-2.73V104.5h.05l10.36 16.51h.49v-17.52h2.73v-.35h-5.83v.35zM275.14 105.34c-.81-.82-1.72-1.47-2.74-1.93-1.02-.47-2.08-.71-3.16-.71-1.02 0-2.03.24-3.05.71-1.02.46-1.93 1.11-2.75 1.93-.81.81-1.48 1.79-1.99 2.9-.52 1.12-.78 2.33-.78 3.64 0 1.18.21 2.32.64 3.43.43 1.11 1.02 2.08 1.78 2.93.76.85 1.67 1.52 2.72 2.03 1.05.51 2.19.76 3.42.76s2.31-.26 3.36-.79c1.04-.53 1.95-1.21 2.72-2.07.77-.85 1.38-1.83 1.82-2.93.44-1.1.66-2.22.66-3.37 0-1.31-.24-2.53-.73-3.64-.49-1.11-1.13-2.09-1.93-2.9zm-.47 10.41c-.19 1.1-.52 2.02-.98 2.75-.46.74-1.05 1.29-1.78 1.65-.73.36-1.62.54-2.67.54s-1.96-.18-2.68-.54c-.72-.36-1.31-.91-1.77-1.65-.46-.74-.79-1.66-.99-2.75-.19-1.1-.29-2.39-.29-3.86 0-1.13.08-2.23.22-3.28.14-1.06.43-2 .84-2.83.42-.83 1-1.49 1.75-1.98.74-.49 1.72-.74 2.92-.74s2.17.25 2.92.74 1.33 1.15 1.75 1.98c.42.83.7 1.77.85 2.83.15 1.06.22 2.15.22 3.28 0 1.47-.09 2.77-.3 3.86zM308.25 103.49h2.64l-5.17 14.27h-.05l-5.07-14.27h2.68v-.35h-7.38v.35h2.07l1.87 5.19-3.27 9.08h-.05l-5.07-14.27h2.56v-.35h-7.41v.35h2.22l6.27 17.54h.66l4.29-11.8h.05l4.23 11.8h.61l6.37-17.54h2.22v-.35h-5.27v.35z"/></svg>