<svg id="Layer_1" data-name="Layer 1" xmlns="http://www.w3.org/2000/svg" viewBox="0 0 45.31 8.93"><defs><style>.cls-1{fill:#1d1d1b;}</style></defs><path class="cls-1" d="M0,.15C1.15.09,2.37,0,3.89,0c3.17,0,4.28,1,4.28,4.41S7.06,8.87,3.89,8.87c-1.5,0-2.74,0-3.89-.12ZM2.21,7.36H3.89c1.51,0,1.95-.66,1.95-2.92S5.4,1.52,3.89,1.52l-1.68,0Z" transform="translate(0 0.02)"/><path class="cls-1" d="M17.14,8.75H14.93V4.91H11.38V8.75H9.17V.15h2.21V3.44h3.55V.15h2.21Z" transform="translate(0 0.02)"/><path class="cls-1" d="M26.72,4.45c0,3.46-1.14,4.47-4.31,4.47s-4.29-1-4.29-4.47S19.24,0,22.41,0,26.72,1,26.72,4.45Zm-6.27,0c0,2.29.44,2.94,2,2.94s2-.65,2-2.94-.46-2.93-2-2.93S20.45,2.17,20.45,4.45Z" transform="translate(0 0.02)"/><path class="cls-1" d="M29.86,6.58c0,.44.22.63.78.63h3.45l.1,1.45c-1.34.12-2.82.13-4.24.13C28.34,8.79,27.64,8,27.64,7V.15h2.22Z" transform="translate(0 0.02)"/><path class="cls-1" d="M34.69,8.75V.15H36.9v8.6Z" transform="translate(0 0.02)"/><path class="cls-1" d="M45.31,8.56a11.43,11.43,0,0,1-3.22.34c-3.09,0-4.21-1.17-4.21-4.45S39,0,42.09,0a12.3,12.3,0,0,1,3,.29l-.19,1.42c-1-.05-1.56-.07-2.83-.07-1.45,0-1.88.64-1.88,2.81s.43,2.81,1.88,2.81a28.28,28.28,0,0,0,3-.11Z" transform="translate(0 0.02)"/></svg>