<svg width="131" height="48" viewBox="0 0 131 48" fill="none" xmlns="http://www.w3.org/2000/svg">
<path fill-rule="evenodd" clip-rule="evenodd" d="M38.1932 28.2365C38.1629 28.1758 38.1022 28.1455 38.0719 28.0847C38.0719 28.024 38.0719 27.9633 38.0719 27.9026C38.3448 26.9917 38.6479 26.1112 38.9208 25.2307C39.2239 24.1984 39.4665 23.2572 39.5574 22.4071C39.9212 19.2798 40.376 16.6079 40.8913 14.4219C41.3461 12.4787 42.1343 9.92833 43.1651 6.80106C40.7701 10.5356 38.2538 14.2397 35.8285 17.9742C31.2508 25.17 26.7033 28.6616 22.3984 28.6616C21.2767 28.6616 20.3066 28.3884 19.5184 27.8418C18.5179 27.1435 18.0026 26.1416 18.0026 24.836C18.0026 24.2591 18.1238 23.743 18.3664 23.3179C18.6089 22.8929 18.9727 22.6803 19.3971 22.6803C19.7003 22.6803 19.9731 22.8018 20.2157 23.0447C20.4582 23.3179 20.5794 23.6215 20.5794 23.9859C20.5794 24.8967 20.155 25.3522 19.3062 25.3522C18.8817 25.3522 18.5786 25.1093 18.427 24.5931C18.5179 26.9917 19.8519 28.2062 22.4591 28.2062C26.5214 28.1758 30.9779 24.7146 35.5557 17.6099C38.7389 12.6609 42.2253 7.43866 45.7419 1.76099C45.7723 1.73063 45.8329 1.70027 45.8935 1.6699C45.9542 1.73063 46.0451 1.79135 46.1057 1.85207C46.1057 1.9128 46.1057 1.97352 46.1057 2.03425C45.651 3.24872 45.1659 4.49356 44.7112 5.70803C44.2261 7.10468 43.8623 8.37988 43.6501 9.59435C43.1044 13.086 42.6194 15.5756 42.2859 17.033C41.8918 18.7333 41.1945 21.0104 40.285 23.8644C43.2257 19.1583 46.2876 14.5433 49.2283 9.83725C50.926 7.10468 52.8663 4.91862 54.9278 3.15763C57.3834 1.0323 59.7784 0 62.0824 0C62.9919 0 63.8104 0.212533 64.5683 0.698323C65.5081 1.2752 65.9932 2.06461 65.9932 3.09691C65.9932 3.52198 65.8719 3.88632 65.6294 4.2203C65.3869 4.52392 65.0837 4.67573 64.7502 4.67573C64.2349 4.67573 63.962 4.25066 63.962 3.37017C63.962 2.79329 64.3561 2.36823 65.1747 2.15569C64.7805 1.06267 63.7498 0.516152 62.143 0.516152C59.8693 0.516152 57.4743 1.51809 55.049 3.61306C53.0482 5.37405 51.1079 7.52975 49.4405 10.232C47.5912 13.1771 45.651 16.0918 43.8017 19.0065C41.6492 22.4374 39.8 25.4129 38.4357 28.0544C38.3448 28.1151 38.2538 28.1758 38.1932 28.2365Z" fill="black"/>
<path fill-rule="evenodd" clip-rule="evenodd" d="M53.0208 15.1501C52.8692 15.6055 52.5054 16.0913 51.9597 16.5468C51.5656 16.1824 51.2321 15.7573 50.9896 15.2412C51.2018 14.6643 51.5353 14.2089 51.9597 13.9053C52.3538 14.0874 52.6873 14.5125 53.0208 15.1501ZM49.6253 19.8866C48.7159 21.1921 47.7457 22.4977 46.8362 23.8336C45.3204 26.05 44.5322 27.2341 44.5019 27.5377C44.5928 27.6288 44.6838 27.6896 44.7747 27.7503C45.472 27.7806 46.5331 27.2038 47.9883 25.9286C49.5041 24.623 50.2923 23.9854 50.3226 23.9854C50.3529 24.0765 50.4136 24.1676 50.4742 24.2587C50.4439 24.7445 49.5344 25.5642 47.7761 26.7483C46.0783 27.9021 44.9566 28.4486 44.4109 28.4486C43.744 28.4486 43.4408 27.9932 43.4408 27.1127C43.4408 26.4447 43.653 25.716 44.0775 24.9266C44.1078 24.8659 44.5019 24.2587 45.2295 23.0746C44.7747 23.4996 44.1987 23.9551 43.4711 24.4408C43.4105 24.3498 43.3499 24.2587 43.2892 24.1676C43.3196 24.0765 43.3499 24.0158 43.4105 23.9247C45.1992 22.4066 46.6847 21.0403 47.8064 19.7955C48.4127 19.8866 49.019 19.8866 49.6253 19.8866Z" fill="black"/>
<path fill-rule="evenodd" clip-rule="evenodd" d="M44.4399 38.3468C45.7132 38.3468 47.0774 37.436 48.5023 35.5535C48.6235 35.4017 49.6846 33.8229 51.5945 30.726C49.2602 31.8797 47.6837 32.6692 46.8955 33.1853C44.7734 34.6123 43.7123 35.9786 43.7123 37.3752C43.7123 38.0128 43.9548 38.3468 44.4399 38.3468ZM59.2949 19.8868C59.9012 19.8868 60.5378 19.8868 61.1441 19.8868C59.1433 22.8319 57.0818 25.7163 55.0809 28.631C56.7483 27.6291 58.6582 26.1413 60.7804 24.016C60.9623 23.9857 61.0532 24.0464 61.0532 24.2286C61.0532 24.2893 61.0532 24.35 61.0229 24.4107C60.8713 24.7143 60.0831 25.443 58.6885 26.6271C57.3849 27.7202 56.5058 28.3881 56.051 28.6917C55.6872 28.8739 55.1415 29.2079 54.4443 29.6937C52.9284 31.5458 51.3217 33.3675 49.8059 35.2499C47.714 37.6789 45.9254 38.8326 44.4702 38.8326C43.6517 38.8326 43.2272 38.3468 43.2272 37.3752C43.2272 35.7661 44.4399 34.248 46.8349 32.6691C47.5928 32.1834 49.3814 31.3029 52.1402 29.9669C52.7465 29.0257 53.3529 28.1149 53.9592 27.204C52.8678 28.0845 51.8674 28.5399 51.0488 28.5399C50.0181 28.5399 49.5027 27.8113 49.5027 26.3842C49.5027 24.8054 50.3516 23.3177 51.9886 21.8603C53.5044 20.5244 54.899 19.8564 56.2026 19.8564C57.3849 19.8564 57.9306 20.5244 57.8094 21.83C58.2944 21.1924 58.8098 20.5548 59.2949 19.8868ZM51.0791 27.9934C52.0493 27.9934 53.3226 27.2344 54.899 25.6859C56.5361 24.0767 57.3546 22.7105 57.3546 21.5263C57.3546 20.828 57.0211 20.494 56.4148 20.494C55.6266 20.494 54.4139 21.3442 52.8072 23.1659C51.2004 24.9572 50.3516 26.2932 50.3516 27.2647C50.3819 27.7505 50.5941 27.9934 51.0791 27.9934Z" fill="black"/>
<path fill-rule="evenodd" clip-rule="evenodd" d="M69.0263 16.7895C72.3005 14.148 74.3317 12.5692 75.0593 11.9012C77.909 9.22935 79.3945 7.22546 79.3945 5.76809C79.3945 5.10013 79.1216 4.79651 78.5759 4.79651C77.3633 4.79651 75.5746 6.40569 73.3616 9.71514C72.7552 10.6564 71.2394 12.9942 69.0263 16.7895ZM60.9319 24.471C60.9016 24.3799 60.8409 24.3192 60.8106 24.2281C60.8409 24.1674 60.8409 24.0763 60.8409 24.0156C61.2047 23.4691 61.9626 22.8011 62.9934 21.9813C64.0545 21.1616 64.8124 20.4936 65.2065 19.8864C66.2676 18.2165 67.3893 16.6073 68.4503 14.9374C70.4512 11.9619 72.2702 9.62405 73.786 7.86306C75.8778 5.43411 77.5452 4.25 78.6972 4.25C79.0004 4.25 79.2732 4.37145 79.5158 4.70543C79.728 5.00905 79.8492 5.37339 79.8492 5.76809C79.8492 7.16474 79.0307 8.71319 77.4542 10.4135C76.4538 11.5065 74.7864 12.8424 72.5733 14.5427C70.4209 16.1822 69.087 17.2145 68.6625 17.6699C68.0865 18.3379 67.4196 19.2488 66.6617 20.4025C66.0553 21.3741 65.4187 22.3457 64.8124 23.3173C67.0255 21.0098 68.7232 19.8864 69.8449 19.8864C70.4512 19.8864 70.7544 20.3418 70.7544 21.2223C70.7544 22.2242 70.1783 23.4691 69.1173 24.9568C68.0562 26.4749 67.4802 27.325 67.4802 27.5376C67.5712 27.6286 67.6621 27.6894 67.753 27.7501C68.4806 27.7804 69.572 27.2036 71.0272 25.898C72.4824 24.6228 73.2706 24.0156 73.3616 23.9852C73.3919 24.0459 73.4222 24.1067 73.4525 24.1977C73.4222 24.7139 72.5127 25.564 70.7847 26.7481C69.087 27.9019 67.9653 28.4484 67.4196 28.4484C66.7526 28.4484 66.4191 27.993 66.4191 27.0214C66.4191 26.1409 66.9951 24.9264 68.1472 23.2869C69.2689 21.6474 69.8449 20.7972 69.8752 20.6454C69.8146 20.5543 69.7539 20.4632 69.6933 20.3722C67.9956 20.3114 65.1762 22.9529 61.417 28.4484C60.75 28.4484 60.083 28.4484 59.4161 28.4484C60.9016 26.2927 62.4477 24.1977 63.9635 22.0724C63.0843 22.8922 62.0839 23.6816 60.9319 24.471Z" fill="black"/>
<path fill-rule="evenodd" clip-rule="evenodd" d="M73.181 24.5319C73.1507 24.4408 73.0901 24.3497 73.0294 24.2586C73.0597 24.1676 73.09 24.1068 73.1204 24.0158C76.152 21.3743 78.4257 19.0971 79.7596 17.154C79.4868 17.154 79.2139 17.154 78.9411 17.154C78.8501 17.0629 78.7592 16.9718 78.6682 16.8807C78.7592 16.6378 79.2443 16.5164 80.1841 16.5771C81.0935 15.2412 82.0637 13.9356 82.9731 12.5693C83.6098 12.5693 84.2161 12.5693 84.8528 12.5693C83.913 13.9053 82.9428 15.2108 82.0333 16.5771C82.7003 16.5771 83.3976 16.5771 84.0645 16.5771C84.1252 16.6682 84.2161 16.7593 84.2767 16.8504C84.2464 17.0933 83.3976 17.2147 81.7302 17.1236C80.4569 18.9453 79.123 20.7367 77.8497 22.5584C75.7579 25.6249 74.6362 27.2645 74.6059 27.5681C74.6968 27.6288 74.7574 27.6895 74.8484 27.7503C76.0914 27.8413 78.0013 26.5965 80.4872 23.9854C80.5175 24.0765 80.5782 24.1676 80.6388 24.2586C80.6085 24.8355 79.7293 25.6857 78.0013 26.8394C76.3339 27.9324 75.2122 28.4789 74.6059 28.4789C73.9389 28.4789 73.6054 28.0539 73.6054 27.2037C73.6054 26.2322 73.9692 25.1999 74.7271 24.1068C75.3941 23.2567 76.0307 22.4369 76.6977 21.6172C75.6669 22.5584 74.4543 23.53 73.181 24.5319Z" fill="black"/>
<path fill-rule="evenodd" clip-rule="evenodd" d="M90.7927 21.9508C90.6108 22.3759 90.3986 22.8313 90.2167 23.2564C90.1864 23.226 90.1257 23.226 90.0954 23.1956C90.1257 23.0438 90.156 22.9528 90.156 22.9224C90.156 22.8009 90.0348 22.7099 89.8529 22.5884C89.3072 22.2544 88.7009 22.1026 88.0642 22.1026C87.5488 22.1026 87.0941 22.2241 86.7303 22.467C86.5484 22.5884 86.3968 22.7402 86.3059 22.9224C86.1846 23.1046 86.1543 23.2867 86.1543 23.4993C86.1543 23.6814 86.1846 23.8332 86.2756 23.9851C86.3665 24.1369 86.4575 24.2583 86.609 24.319C86.7606 24.4101 86.9425 24.4708 87.1547 24.5012C87.3366 24.5316 87.6701 24.5619 88.1552 24.5923C88.7918 24.6227 89.2466 24.653 89.5194 24.7137C89.7922 24.7441 90.0348 24.8352 90.1864 24.987C90.6411 25.321 90.8836 25.8068 90.8836 26.4747C90.8836 27.1123 90.6714 27.6285 90.247 28.0232C89.7922 28.4786 89.1253 28.6911 88.2764 28.6911C87.7914 28.6911 87.367 28.6304 87.0032 28.509C86.6394 28.3875 86.2149 28.175 85.7299 27.841C85.5783 27.7499 85.5177 27.7196 85.4873 27.7196C85.457 27.7196 85.3661 27.7803 85.2751 27.9017C85.2448 27.8714 85.2145 27.841 85.1539 27.8106C85.3661 27.3856 85.5783 26.9605 85.7905 26.5051C85.8208 26.5355 85.8511 26.5658 85.9118 26.5962C85.8511 26.748 85.8208 26.8391 85.8208 26.8694C85.8208 26.9909 86.0027 27.1427 86.3362 27.3856C86.6697 27.5981 86.9728 27.7499 87.276 27.8106C87.5792 27.9017 87.8823 27.9625 88.2461 27.9625C88.9434 27.9625 89.4891 27.7803 89.8529 27.3856C90.0954 27.1427 90.2167 26.8391 90.2167 26.4747C90.2167 26.0193 90.0045 25.7157 89.58 25.5335C89.4588 25.4728 89.3072 25.4424 89.1556 25.4121C89.004 25.3817 88.6099 25.3817 87.943 25.3513C87.4579 25.321 87.0941 25.2906 86.8213 25.2299C86.5484 25.1692 86.3059 25.0477 86.0937 24.8959C85.9118 24.7441 85.7299 24.5619 85.6389 24.319C85.5177 24.0761 85.457 23.8029 85.457 23.4993C85.457 23.0135 85.6086 22.5884 85.9118 22.2241C86.124 21.9508 86.4272 21.7686 86.8213 21.6168C87.2154 21.465 87.6398 21.4043 88.1249 21.4043C88.4886 21.4043 88.8524 21.4347 89.1859 21.5561C89.5194 21.6472 89.8832 21.799 90.2773 22.0419C90.3683 22.0723 90.4289 22.1026 90.4592 22.1026C90.4895 22.1026 90.5805 22.0419 90.6411 21.8901C90.7017 21.8901 90.7624 21.9204 90.7927 21.9508Z" fill="black"/>
<path fill-rule="evenodd" clip-rule="evenodd" d="M93.8854 23.3492C93.8854 24.8673 93.8854 26.3854 93.8854 27.9339C93.8854 28.0553 93.9157 28.1768 93.946 28.2375C93.9764 28.2982 94.037 28.359 94.1583 28.3893C94.1583 28.4197 94.1583 28.4804 94.1583 28.5108C93.7945 28.5108 93.4004 28.5108 93.0366 28.5108C93.0366 28.4804 93.0366 28.4197 93.0366 28.3893C93.1578 28.359 93.2185 28.2982 93.2488 28.2375C93.2791 28.1768 93.3094 28.0857 93.3094 27.9339C93.3094 26.4158 93.3094 24.8673 93.3094 23.3492C92.794 23.3492 92.2787 23.3492 91.7936 23.3492C91.6723 23.3492 91.5814 23.3796 91.5511 23.41C91.5207 23.4403 91.4601 23.5314 91.4298 23.6832C91.3995 23.6832 91.3692 23.6832 91.3085 23.6832C91.3085 23.2885 91.3085 22.8635 91.3085 22.4688C91.3388 22.4688 91.3692 22.4688 91.4298 22.4688C91.4601 22.5902 91.4904 22.6813 91.5511 22.742C91.5814 22.8027 91.6723 22.8027 91.7936 22.8027C93.0062 22.8027 94.2189 22.8027 95.4315 22.8027C95.5528 22.8027 95.6438 22.7724 95.6741 22.742C95.7044 22.7116 95.765 22.6206 95.7953 22.4688C95.8257 22.4688 95.8863 22.4688 95.9166 22.4688C95.9166 22.8635 95.9166 23.2885 95.9166 23.6832C95.8863 23.6832 95.8257 23.6832 95.7953 23.6832C95.765 23.5618 95.7347 23.4707 95.6741 23.41C95.6134 23.3492 95.5528 23.3492 95.4315 23.3492C94.9162 23.3492 94.4008 23.3492 93.8854 23.3492Z" fill="black"/>
<path fill-rule="evenodd" clip-rule="evenodd" d="M99.0692 22.6523C99.8878 22.6523 100.585 22.9256 101.07 23.4418C101.616 24.0186 101.889 24.7473 101.889 25.6885C101.889 26.2654 101.767 26.8119 101.495 27.2977C101.009 28.2086 100.191 28.664 99.0692 28.664C98.2507 28.664 97.5534 28.3907 97.0684 27.8746C96.5227 27.2977 96.2498 26.569 96.2498 25.6885C96.2498 25.0813 96.3711 24.5348 96.6439 24.049C96.9168 23.5328 97.3109 23.1685 97.8263 22.9256C98.1901 22.7434 98.5842 22.6523 99.0692 22.6523ZM99.0692 23.2292C98.4023 23.2292 97.8263 23.4721 97.4322 23.9883C97.0684 24.4437 96.8865 24.9598 96.8865 25.6278C96.8865 26.2654 97.0684 26.8119 97.4322 27.2673C97.8566 27.7835 98.4023 28.0264 99.0995 28.0264C99.7665 28.0264 100.343 27.7531 100.737 27.2673C101.1 26.8119 101.282 26.2958 101.282 25.6582C101.282 24.9902 101.1 24.4437 100.737 23.9883C100.312 23.5025 99.7665 23.2292 99.0692 23.2292Z" fill="black"/>
<path fill-rule="evenodd" clip-rule="evenodd" d="M103.647 25.8997C103.647 26.5677 103.647 27.2357 103.647 27.934C103.647 28.0554 103.677 28.1769 103.707 28.2376C103.738 28.2983 103.829 28.359 103.92 28.3894C103.92 28.4198 103.92 28.4805 103.92 28.5109C103.556 28.5109 103.162 28.5109 102.798 28.5109C102.798 28.4805 102.798 28.4198 102.798 28.3894C102.919 28.359 102.98 28.2983 103.01 28.2376C103.041 28.1769 103.041 28.0858 103.041 27.934C103.041 26.4159 103.041 24.8674 103.041 23.3493C103.041 23.1975 103.041 23.1064 102.98 23.0457C102.95 22.985 102.859 22.9546 102.768 22.9243C102.768 22.8939 102.768 22.8332 102.768 22.7725C103.677 22.7725 104.617 22.7725 105.557 22.7725C105.86 22.7725 106.133 22.8028 106.345 22.8635C106.527 22.9243 106.709 23.0154 106.86 23.1368C107.194 23.4101 107.345 23.8351 107.345 24.3816C107.345 24.8067 107.224 25.171 107.012 25.4139C106.8 25.6872 106.466 25.839 106.012 25.8694C106.406 26.6284 106.8 27.3875 107.194 28.1769C107.224 28.2376 107.285 28.2983 107.315 28.3287C107.345 28.359 107.436 28.3894 107.527 28.3894C107.527 28.4198 107.527 28.4805 107.527 28.5109C107.133 28.5109 106.739 28.5109 106.375 28.5109C106.375 28.4805 106.375 28.4198 106.375 28.3894C106.497 28.359 106.527 28.3287 106.527 28.268C106.527 28.2376 106.497 28.1465 106.436 28.0251C106.072 27.3267 105.708 26.6284 105.375 25.9301C104.799 25.8997 104.223 25.8997 103.647 25.8997ZM103.647 25.3532C104.253 25.3532 104.829 25.3532 105.436 25.3532C105.708 25.3532 105.951 25.3229 106.102 25.3229C106.224 25.2925 106.375 25.2621 106.466 25.2014C106.678 25.0496 106.8 24.7763 106.8 24.412C106.8 24.0477 106.679 23.7744 106.497 23.5922C106.315 23.4101 105.981 23.3493 105.526 23.3493C104.92 23.3493 104.284 23.3493 103.677 23.3493C103.647 23.9869 103.647 24.6549 103.647 25.3532Z" fill="black"/>
<path fill-rule="evenodd" clip-rule="evenodd" d="M109.136 25.8078C109.136 26.5364 109.136 27.2348 109.136 27.9331C110.106 27.9331 111.046 27.9331 112.016 27.9331C112.138 27.9331 112.229 27.9027 112.259 27.8724C112.289 27.842 112.35 27.7509 112.38 27.5991C112.41 27.5991 112.471 27.5991 112.501 27.5991C112.501 27.9938 112.501 28.4189 112.501 28.8136C112.471 28.8136 112.41 28.8136 112.38 28.8136C112.35 28.6921 112.32 28.601 112.259 28.5403C112.229 28.4796 112.138 28.4796 112.016 28.4796C110.773 28.4796 109.5 28.4796 108.257 28.4796C108.257 28.4492 108.257 28.3885 108.257 28.3582C108.378 28.3278 108.439 28.2671 108.469 28.2063C108.5 28.1456 108.53 28.0545 108.53 27.9027C108.53 26.3846 108.53 24.8362 108.53 23.3181C108.53 23.1663 108.5 23.0752 108.469 23.0145C108.439 22.9537 108.348 22.9234 108.257 22.893C108.257 22.8627 108.257 22.8019 108.257 22.7412C109.5 22.7412 110.743 22.7412 111.986 22.7412C112.107 22.7412 112.168 22.7108 112.229 22.6805C112.289 22.6501 112.32 22.559 112.35 22.4072C112.38 22.4072 112.41 22.4072 112.471 22.4072C112.471 22.8019 112.471 23.227 112.471 23.6217C112.441 23.6217 112.38 23.6217 112.35 23.6217C112.32 23.5003 112.289 23.4092 112.229 23.3484C112.198 23.3181 112.107 23.2877 111.986 23.2877C111.016 23.2877 110.076 23.2877 109.136 23.2877C109.136 23.9253 109.136 24.5933 109.136 25.2309C109.743 25.2309 110.349 25.2309 110.955 25.2309C111.077 25.2309 111.168 25.2005 111.198 25.1702C111.228 25.1094 111.289 25.0487 111.319 24.8969C111.349 24.8969 111.38 24.8969 111.44 24.8969C111.44 25.322 111.44 25.7167 111.44 26.1114C111.41 26.1114 111.38 26.1114 111.319 26.1114C111.289 25.9899 111.258 25.8988 111.198 25.8381C111.168 25.8078 111.077 25.7774 110.955 25.7774C110.349 25.8078 109.743 25.8078 109.136 25.8078Z" fill="black"/>
<path fill-rule="evenodd" clip-rule="evenodd" d="M0 42.5576C0.960882 42.5576 1.87372 42.5576 2.8346 42.5576C3.45918 42.5576 3.98766 42.6539 4.37201 42.8463C4.75637 43.0388 5.04463 43.3275 5.28485 43.7124C5.52507 44.0973 5.62116 44.5785 5.62116 45.1078C5.62116 45.4927 5.57312 45.8295 5.42899 46.1182C5.3329 46.4069 5.14072 46.6956 4.9005 46.8881C4.66028 47.1287 4.42006 47.3211 4.17984 47.4174C3.98766 47.5136 3.6994 47.5617 3.36309 47.6098C2.97874 47.658 2.69047 47.7061 2.49829 47.7061C1.68154 47.7061 0.864794 47.7061 0 47.7061C0 47.4655 0 47.2249 0 46.9843C0.0480441 46.9843 0.144132 46.9843 0.192176 46.9843C0.336309 46.9843 0.432397 46.9843 0.480441 46.9362C0.528485 46.8881 0.576529 46.8881 0.624573 46.7919C0.672617 46.7437 0.672618 46.6475 0.672618 46.5032C0.672618 45.5408 0.672618 44.6266 0.672618 43.6643C0.672618 43.5199 0.672617 43.4237 0.624573 43.3756C0.576529 43.3275 0.576529 43.2794 0.528485 43.2794C0.48044 43.2312 0.384353 43.2312 0.192176 43.2312C0.144132 43.2312 0.0480441 43.2312 0 43.2312C0 43.0388 0 42.7982 0 42.5576ZM1.96981 43.3756C1.96981 44.4342 1.96981 45.5408 1.96981 46.5994C1.96981 46.6956 1.96981 46.7919 1.96981 46.7919C2.01785 46.84 2.01785 46.84 2.0659 46.8881C2.11394 46.8881 2.21003 46.8881 2.35416 46.8881C2.78656 46.8881 3.12287 46.84 3.36309 46.6956C3.60331 46.5513 3.79549 46.3588 3.93962 46.1182C4.08375 45.8295 4.17984 45.4927 4.17984 45.1078C4.17984 44.7229 4.08375 44.386 3.98766 44.1455C3.84353 43.8568 3.6994 43.6643 3.50722 43.5681C3.31504 43.4237 3.02678 43.3756 2.64243 43.3756C2.35416 43.3756 2.16198 43.3756 1.96981 43.3756Z" fill="black"/>
<path fill-rule="evenodd" clip-rule="evenodd" d="M9.03225 42.459C9.89704 42.459 10.5697 42.6996 11.0981 43.2288C11.6266 43.71 11.9149 44.3836 11.9149 45.1535C11.9149 45.6828 11.7708 46.1158 11.5305 46.5489C11.2903 46.9338 10.954 47.2706 10.5216 47.5112C10.0892 47.7037 9.60878 47.848 8.98421 47.848C8.16746 47.848 7.54288 47.6556 7.0144 47.2225C6.38983 46.6932 6.10156 46.0196 6.10156 45.2016C6.10156 44.4318 6.38983 43.7581 6.91831 43.277C7.4468 42.6996 8.16746 42.459 9.03225 42.459ZM9.03225 43.277C8.6479 43.277 8.31159 43.4213 8.07137 43.71C7.7831 44.0949 7.63897 44.5761 7.63897 45.1535C7.63897 45.7309 7.7831 46.2121 8.07137 46.5489C8.31159 46.8376 8.6479 46.9819 9.03225 46.9819C9.4166 46.9819 9.75291 46.8376 9.99313 46.5489C10.2814 46.2121 10.4255 45.7309 10.4255 45.1535C10.4255 44.7205 10.3775 44.3836 10.2334 44.1431C10.1373 43.8544 9.94509 43.6619 9.75291 43.5175C9.51269 43.3251 9.27247 43.277 9.03225 43.277Z" fill="black"/>
<path fill-rule="evenodd" clip-rule="evenodd" d="M12.2976 42.5576C13.1624 42.5576 14.0272 42.5576 14.892 42.5576C14.892 42.7982 14.892 43.0388 14.892 43.2794C14.7959 43.2794 14.6998 43.2794 14.6518 43.2794C14.5557 43.2794 14.4596 43.2794 14.4115 43.3275C14.3635 43.3756 14.3155 43.4237 14.3155 43.4237C14.2674 43.4718 14.2674 43.5681 14.2674 43.7605C14.2674 44.386 14.2674 45.0115 14.2674 45.6371C14.2674 45.9739 14.3155 46.2626 14.3635 46.4069C14.4596 46.5994 14.5557 46.6956 14.6998 46.7919C14.8439 46.8881 15.0361 46.9362 15.2283 46.9362C15.4205 46.9362 15.6126 46.8881 15.8048 46.7919C15.949 46.6956 16.0931 46.5994 16.1411 46.4069C16.2372 46.2626 16.2372 46.022 16.2372 45.6852C16.2372 45.0116 16.2372 44.2898 16.2372 43.6162C16.2372 43.5199 16.2372 43.4718 16.1892 43.4237C16.1411 43.3756 16.0931 43.3275 16.045 43.3275C15.997 43.3275 15.9009 43.2794 15.8048 43.2794C15.7087 43.2794 15.6607 43.2794 15.6127 43.2794C15.6127 43.0388 15.6127 42.7982 15.6127 42.5576C16.3333 42.5576 17.102 42.5576 17.8227 42.5576C17.8227 42.7982 17.8227 43.0388 17.8227 43.2794C17.7746 43.2794 17.7266 43.2794 17.6785 43.2794C17.4864 43.2794 17.3903 43.2794 17.3422 43.3275C17.2942 43.3756 17.2461 43.4237 17.1981 43.4718C17.1501 43.5199 17.1501 43.6162 17.1501 43.7605C17.1501 44.4342 17.1501 45.1078 17.1501 45.7814C17.1501 46.1663 17.102 46.455 17.0059 46.7437C16.8618 47.0806 16.5735 47.3692 16.2372 47.5617C15.9009 47.7542 15.5166 47.8504 15.0361 47.8504C14.6998 47.8504 14.4115 47.8023 14.1713 47.7061C13.9311 47.6098 13.6909 47.4655 13.4987 47.273C13.3065 47.0806 13.1624 46.8881 13.1144 46.6956C13.0183 46.5032 12.9702 46.2145 12.9702 45.7814C12.9702 45.1078 12.9702 44.4342 12.9702 43.7605C12.9702 43.5681 12.9702 43.4718 12.9222 43.4237C12.8741 43.3756 12.8741 43.3275 12.8261 43.3275C12.778 43.2794 12.682 43.2794 12.5378 43.2794C12.4417 43.2794 12.3937 43.2794 12.2976 43.2794C12.2976 43.0388 12.2976 42.7982 12.2976 42.5576Z" fill="black"/>
<path fill-rule="evenodd" clip-rule="evenodd" d="M18.2555 43.2794C18.2555 43.0388 18.2555 42.7982 18.2555 42.5576C19.2644 42.5576 20.2733 42.5576 21.2823 42.5576C21.7627 42.5576 22.099 42.6057 22.3873 42.702C22.6275 42.7982 22.8677 42.9425 23.0119 43.135C23.156 43.3275 23.204 43.5681 23.204 43.7605C23.204 43.953 23.156 44.0973 23.108 44.2417C23.0119 44.386 22.9158 44.5304 22.7716 44.6266C22.6275 44.7229 22.4353 44.8191 22.1951 44.9153C22.4353 44.9634 22.6275 45.0597 22.7716 45.1078C22.9638 45.204 23.1079 45.3484 23.2521 45.5408C23.3482 45.7333 23.3962 45.9258 23.3962 46.1663C23.3962 46.455 23.3001 46.6956 23.156 46.9362C23.0119 47.1768 22.7236 47.3693 22.4353 47.4655C22.099 47.5617 21.6666 47.658 21.0421 47.658C20.1292 47.658 19.1683 47.658 18.2555 47.658C18.2555 47.4174 18.2555 47.1768 18.2555 46.9362C18.3035 46.9362 18.3996 46.9362 18.4477 46.9362C18.5918 46.9362 18.6879 46.9362 18.7359 46.8881C18.784 46.84 18.832 46.84 18.832 46.7919C18.832 46.7437 18.8801 46.6475 18.8801 46.5032C18.8801 45.5408 18.8801 44.5785 18.8801 43.6162C18.8801 43.4718 18.8801 43.3756 18.832 43.3275C18.784 43.2794 18.784 43.2312 18.7359 43.2312C18.6879 43.1831 18.5918 43.1831 18.4477 43.1831C18.3996 43.2794 18.3516 43.2794 18.2555 43.2794ZM20.2253 44.6266C20.4175 44.6266 20.6097 44.6266 20.8018 44.6266C21.0901 44.6266 21.3303 44.5785 21.4744 44.5304C21.6186 44.4823 21.7147 44.386 21.8108 44.2898C21.9068 44.1936 21.9068 44.0973 21.9068 43.953C21.9068 43.8086 21.8588 43.7124 21.8108 43.6162C21.7147 43.5199 21.6186 43.4237 21.4744 43.4237C21.3303 43.3756 21.0901 43.3756 20.7538 43.3756C20.5616 43.3756 20.3694 43.3756 20.1773 43.3756C20.2253 43.8086 20.2253 44.1936 20.2253 44.6266ZM20.2253 45.3965C20.2253 45.7814 20.2253 46.1182 20.2253 46.5032C20.2253 46.6475 20.2253 46.7437 20.2253 46.7919C20.2253 46.84 20.2733 46.84 20.2733 46.8881C20.3214 46.8881 20.3694 46.8881 20.5136 46.8881C20.6577 46.8881 20.7538 46.8881 20.8979 46.8881C21.1381 46.8881 21.3303 46.8881 21.4744 46.84C21.6186 46.7919 21.7627 46.7437 21.8588 46.5994C21.9549 46.455 22.0029 46.3107 22.0029 46.1663C22.0029 46.022 21.9549 45.8776 21.9068 45.7814C21.8588 45.6852 21.7147 45.5889 21.5705 45.5408C21.4264 45.4927 21.1862 45.4446 20.8979 45.4446C20.7057 45.3965 20.4655 45.3965 20.2253 45.3965Z" fill="black"/>
<path fill-rule="evenodd" clip-rule="evenodd" d="M23.975 42.5576C24.8398 42.5576 25.7046 42.5576 26.5694 42.5576C26.5694 42.7982 26.5694 43.0388 26.5694 43.2794C26.4733 43.2794 26.4253 43.2794 26.3292 43.2794C26.1851 43.2794 26.137 43.2794 26.089 43.2794C26.0409 43.3275 25.9929 43.3756 25.9448 43.3756C25.8968 43.4237 25.8968 43.5199 25.8968 43.6162C25.8968 44.5785 25.8968 45.5889 25.8968 46.5513C25.8968 46.6956 25.8968 46.7437 25.8968 46.7919C25.8968 46.84 25.9449 46.84 25.9929 46.84C26.0409 46.84 26.089 46.8881 26.1851 46.8881C26.5214 46.8881 26.8096 46.84 27.0018 46.7437C27.194 46.6475 27.3862 46.5032 27.5783 46.3107C27.7225 46.1182 27.9147 45.8776 28.0107 45.5408C28.251 45.6371 28.4912 45.6852 28.7314 45.7814C28.4912 46.4069 28.251 47.0324 28.0107 47.7061C26.6655 47.7061 25.2722 47.7061 23.927 47.7061C23.927 47.4655 23.927 47.2249 23.927 46.9843C24.0231 46.9843 24.0711 46.9843 24.1672 46.9843C24.2633 46.9843 24.3594 46.9843 24.4074 46.9362C24.4555 46.8881 24.5035 46.8881 24.5516 46.84C24.5516 46.7919 24.5996 46.6956 24.5996 46.5994C24.5996 45.6371 24.5996 44.6266 24.5996 43.6643C24.5996 43.5199 24.5996 43.4718 24.5516 43.3756C24.5035 43.3275 24.5035 43.2794 24.4555 43.2794C24.4074 43.2312 24.3594 43.2312 24.2153 43.2312C24.1192 43.2312 24.0231 43.2312 23.927 43.2312C23.975 43.0388 23.975 42.7982 23.975 42.5576Z" fill="black"/>
<path fill-rule="evenodd" clip-rule="evenodd" d="M28.9706 42.5576C30.46 42.5576 31.9494 42.5576 33.4387 42.5576C33.6309 43.135 33.8711 43.6643 34.0633 44.1936C33.8231 44.2898 33.5829 44.3379 33.3907 44.4342C33.2466 44.1936 33.1505 43.953 32.9583 43.8086C32.8142 43.6643 32.622 43.5681 32.4298 43.4718C32.2376 43.4237 31.9974 43.3756 31.7572 43.3756C31.517 43.3756 31.2287 43.3756 30.9404 43.3756C30.9404 43.8086 30.9404 44.2417 30.9404 44.6747C31.0365 44.6747 31.1326 44.6747 31.1807 44.6747C31.3728 44.6747 31.517 44.6747 31.6131 44.6266C31.7092 44.5785 31.7572 44.5304 31.7572 44.4823C31.8052 44.4342 31.8052 44.2898 31.8052 44.1455C31.8052 44.0492 31.8052 44.0011 31.8052 43.953C32.0455 43.953 32.2376 43.953 32.4779 43.953C32.4779 44.6747 32.4779 45.3965 32.4779 46.1663C32.2376 46.1663 32.0455 46.1663 31.8052 46.1663C31.8052 46.0701 31.8052 46.022 31.8052 45.9258C31.8052 45.7814 31.7572 45.6852 31.7572 45.589C31.7092 45.5408 31.6611 45.4927 31.6131 45.4446C31.565 45.3965 31.4209 45.3965 31.1807 45.3965C31.0846 45.3965 31.0365 45.3965 30.9404 45.3965C30.9404 45.7814 30.9404 46.1663 30.9404 46.5994C30.9404 46.7437 30.9404 46.7919 30.9885 46.84C30.9885 46.8881 31.0365 46.8881 31.0846 46.8881C31.1326 46.8881 31.1807 46.8881 31.3248 46.8881C31.4689 46.8881 31.6131 46.8881 31.7572 46.8881C32.0935 46.8881 32.3818 46.84 32.622 46.7437C32.8622 46.6475 33.0544 46.5032 33.2466 46.3107C33.4387 46.1182 33.5829 45.8776 33.679 45.589C33.9192 45.6852 34.1594 45.7333 34.3996 45.8295C34.1594 46.455 33.9192 47.1287 33.679 47.7542C32.1416 47.7542 30.6041 47.7542 29.0187 47.7542C29.0187 47.5136 29.0187 47.273 29.0187 47.0324C29.0667 47.0324 29.1148 47.0324 29.1628 47.0324C29.355 47.0324 29.4511 47.0324 29.5472 46.9843C29.5952 46.9362 29.6433 46.9362 29.6913 46.84C29.6913 46.7919 29.7393 46.6956 29.7393 46.5032C29.7393 45.5408 29.7393 44.6266 29.7393 43.6643C29.7393 43.5199 29.7393 43.4237 29.6913 43.3756C29.6433 43.3275 29.6433 43.2794 29.5952 43.2794C29.5472 43.2312 29.4511 43.2312 29.3069 43.2312C29.2109 43.2312 29.1628 43.2312 29.0667 43.2312C28.9706 43.0388 28.9706 42.7982 28.9706 42.5576Z" fill="black"/>
<path fill-rule="evenodd" clip-rule="evenodd" d="M41.3635 42.5579C41.5076 43.1353 41.6998 43.7127 41.844 44.2901C41.6037 44.3382 41.3635 44.4344 41.1233 44.4825C40.8831 44.0495 40.5948 43.7608 40.3065 43.5683C40.0183 43.3759 39.682 43.2796 39.3457 43.2796C39.1054 43.2796 38.9613 43.3277 38.8172 43.424C38.6731 43.5202 38.625 43.6164 38.625 43.7127C38.625 43.857 38.6731 43.9533 38.8172 44.0495C38.9133 44.1457 39.1535 44.242 39.4418 44.3382C39.7781 44.4344 40.1144 44.5307 40.4507 44.6269C41.0272 44.7712 41.4596 45.0118 41.6998 45.2524C41.94 45.493 42.0842 45.8298 42.0842 46.1666C42.0842 46.5997 41.892 46.9846 41.5076 47.3214C41.1233 47.6582 40.5948 47.8507 39.9702 47.8507C39.682 47.8507 39.4418 47.8026 39.2015 47.7544C38.9613 47.7063 38.7211 47.562 38.4328 47.4176C38.3848 47.5139 38.3367 47.6582 38.2887 47.8026C38.0965 47.8026 37.9043 47.8026 37.7122 47.8026C37.6161 47.1289 37.472 46.4553 37.3278 45.7817C37.568 45.7336 37.8083 45.6854 38.0485 45.5892C38.2407 46.0223 38.4809 46.3591 38.8172 46.5997C39.1535 46.8884 39.5859 47.0327 40.0183 47.0327C40.2105 47.0327 40.3546 46.9846 40.4987 46.9846C40.6429 46.9365 40.7389 46.8884 40.787 46.7921C40.835 46.6959 40.8831 46.6478 40.8831 46.5515C40.8831 46.4072 40.787 46.2628 40.6909 46.1666C40.5468 46.0704 40.2585 45.9741 39.9222 45.8298C39.6339 45.7336 39.2976 45.6854 39.0094 45.5892C38.8652 45.5411 38.673 45.493 38.4328 45.3967C38.1926 45.3005 38.0485 45.2043 37.9043 45.0599C37.7602 44.9637 37.6641 44.8194 37.568 44.6269C37.472 44.4344 37.4719 44.2901 37.4719 44.0495C37.4719 43.8089 37.568 43.5202 37.7122 43.2796C37.8563 43.039 38.0965 42.8466 38.4328 42.7022C38.7691 42.5579 39.1054 42.5098 39.4898 42.5098C39.9702 42.5098 40.3546 42.606 40.7389 42.8466C40.787 42.7504 40.835 42.6541 40.8831 42.606C40.9792 42.5579 41.1713 42.5579 41.3635 42.5579Z" fill="black"/>
<path fill-rule="evenodd" clip-rule="evenodd" d="M42.9022 42.3652C43.0463 42.3652 43.2385 42.3652 43.3826 42.3652C43.4307 42.4134 43.4307 42.5096 43.4307 42.5577C44.4396 42.5577 45.4485 42.5577 46.4574 42.5577C46.5055 42.5096 46.5055 42.4615 46.5055 42.3652C46.6977 42.3652 46.8418 42.3652 47.034 42.3652C47.2261 42.9907 47.4664 43.5681 47.7066 44.1937C47.4664 44.2899 47.2261 44.338 46.9859 44.4342C46.8418 44.1455 46.6977 43.9531 46.6496 43.8568C46.5055 43.6644 46.3613 43.52 46.1692 43.4238C46.025 43.3276 45.929 43.2794 45.7848 43.2794C45.7368 43.2794 45.6887 43.3276 45.6407 43.3276C45.5926 43.3757 45.5926 43.4238 45.5926 43.52C45.5926 44.5305 45.5926 45.4928 45.5926 46.5032C45.5926 46.6957 45.5926 46.7919 45.5926 46.8401C45.5926 46.8882 45.6407 46.9363 45.6887 46.9363C45.7368 46.9844 45.7368 46.9844 45.8329 46.9844C45.8809 46.9844 46.025 46.9844 46.2653 46.9844C46.2653 47.225 46.2653 47.4656 46.2653 47.7061C45.4005 47.7061 44.5357 47.7061 43.6709 47.7061C43.6709 47.4656 43.6709 47.225 43.6709 46.9844C43.7189 46.9844 43.767 46.9844 43.815 46.9844C43.9591 46.9844 44.1033 46.9844 44.1513 46.9363C44.1994 46.9363 44.2474 46.8882 44.2474 46.8401C44.2955 46.7919 44.2955 46.6957 44.2955 46.5032C44.2955 45.4928 44.2955 44.4823 44.2955 43.4719C44.2955 43.3757 44.2955 43.3276 44.2474 43.3276C44.1994 43.2794 44.1994 43.2794 44.1033 43.2794C43.9591 43.2794 43.815 43.3276 43.6709 43.4238C43.5267 43.52 43.3346 43.6644 43.2385 43.8087C43.1904 43.905 43.0944 44.0493 42.9022 44.3861C42.662 44.2899 42.4217 44.2418 42.1815 44.1455C42.4698 43.5681 42.662 42.9426 42.9022 42.3652Z" fill="black"/>
<path fill-rule="evenodd" clip-rule="evenodd" d="M49.9658 42.5576C50.3501 42.5576 50.7825 42.5576 51.1669 42.5576C51.6953 43.9049 52.2719 45.204 52.8004 46.5513C52.8965 46.7437 52.9445 46.8881 53.0406 46.9362C53.0886 46.9843 53.2328 46.9843 53.4249 46.9843C53.4249 47.2249 53.4249 47.4655 53.4249 47.7061C52.5601 47.7061 51.7434 47.7061 50.8786 47.7061C50.8786 47.4655 50.8786 47.2249 50.8786 46.9843C50.9266 46.9843 50.9747 46.9843 51.0227 46.9843C51.1669 46.9843 51.263 46.9362 51.311 46.9362C51.359 46.8881 51.4071 46.84 51.4071 46.7919C51.4071 46.7437 51.359 46.6475 51.311 46.5032C51.263 46.3588 51.2149 46.1663 51.1669 46.022C50.6384 46.022 50.0618 46.022 49.5334 46.022C49.4373 46.2145 49.3892 46.3588 49.3412 46.5513C49.2931 46.6475 49.2931 46.7437 49.2931 46.7919C49.2931 46.84 49.2931 46.8881 49.3412 46.8881C49.3892 46.9362 49.4373 46.9362 49.4853 46.9843C49.5334 46.9843 49.6295 46.9843 49.8697 46.9843C49.8697 47.2249 49.8697 47.4655 49.8697 47.7061C49.149 47.7061 48.4764 47.7061 47.8038 47.7061C47.8038 47.4655 47.8038 47.2249 47.8038 46.9843C47.9479 46.9843 48.044 46.9843 48.092 46.9362C48.1401 46.9362 48.1881 46.8881 48.2362 46.84C48.2842 46.7919 48.3323 46.6956 48.3803 46.5994C48.8607 45.2521 49.4373 43.9049 49.9658 42.5576ZM49.8216 45.3002C50.206 45.3002 50.5423 45.3002 50.8786 45.3002C50.6864 44.8191 50.5423 44.3379 50.3501 43.9049C50.1579 44.386 50.0138 44.8672 49.8216 45.3002Z" fill="black"/>
<path fill-rule="evenodd" clip-rule="evenodd" d="M53.7144 42.5576C54.4351 42.5576 55.1557 42.5576 55.8764 42.5576C56.4049 43.5681 56.9334 44.5785 57.4619 45.5889C57.4619 44.9634 57.4619 44.3379 57.4619 43.7605C57.4619 43.6162 57.4619 43.5199 57.4138 43.4718C57.3658 43.4237 57.3658 43.3756 57.3177 43.3275C57.2697 43.2794 57.1736 43.2794 57.0775 43.2794C56.9814 43.2794 56.9334 43.2794 56.8373 43.2794C56.8373 43.0388 56.8373 42.7982 56.8373 42.5576C57.5579 42.5576 58.3267 42.5576 59.0473 42.5576C59.0473 42.7982 59.0473 43.0388 59.0473 43.2794C58.9512 43.2794 58.9032 43.2794 58.8071 43.2794C58.663 43.2794 58.6149 43.2794 58.5669 43.3275C58.5188 43.3756 58.4708 43.3756 58.4708 43.4237C58.4227 43.4718 58.4227 43.5681 58.4227 43.7124C58.4227 45.0597 58.4227 46.3588 58.4227 47.7061C58.0384 47.7061 57.7021 47.7061 57.3177 47.7061C56.6451 46.455 55.9725 45.1559 55.3479 43.9049C55.3479 44.8191 55.3479 45.6852 55.3479 46.5513C55.3479 46.6956 55.3479 46.7919 55.396 46.84C55.444 46.8881 55.444 46.9362 55.492 46.9362C55.5401 46.9843 55.6362 46.9843 55.7803 46.9843C55.8764 46.9843 55.9244 46.9843 56.0205 46.9843C56.0205 47.2249 56.0205 47.4655 56.0205 47.7061C55.2999 47.7061 54.5312 47.7061 53.8105 47.7061C53.8105 47.4655 53.8105 47.2249 53.8105 46.9843C53.9066 46.9843 53.9546 46.9843 54.0507 46.9843C54.1949 46.9843 54.2429 46.9843 54.2909 46.9362C54.339 46.9362 54.387 46.8881 54.387 46.84C54.4351 46.7919 54.4351 46.6956 54.4351 46.5994C54.4351 45.6371 54.4351 44.6266 54.4351 43.6162C54.4351 43.5199 54.4351 43.4237 54.387 43.3756C54.339 43.3275 54.339 43.2794 54.2909 43.2794C54.2429 43.2312 54.1949 43.2312 54.0988 43.2312C54.0027 43.2312 53.9066 43.2312 53.8105 43.2312C53.7144 43.0388 53.7144 42.7982 53.7144 42.5576Z" fill="black"/>
<path fill-rule="evenodd" clip-rule="evenodd" d="M59.5276 42.5576C60.4405 42.5576 61.4014 42.5576 62.3142 42.5576C62.9388 42.5576 63.4673 42.6539 63.8516 42.8463C64.236 43.0388 64.5242 43.3275 64.7645 43.7124C65.0047 44.0973 65.1008 44.5785 65.1008 45.1078C65.1008 45.4927 65.0527 45.8295 64.9086 46.1182C64.8125 46.4069 64.6203 46.6956 64.4281 46.8881C64.1879 47.1287 63.9477 47.3211 63.7075 47.4174C63.5153 47.5136 63.227 47.5617 62.8907 47.6098C62.5544 47.658 62.2662 47.7061 62.0259 47.7061C61.2092 47.7061 60.3444 47.7061 59.5276 47.7061C59.5276 47.4655 59.5276 47.2249 59.5276 46.9843C59.5757 46.9843 59.6718 46.9843 59.7198 46.9843C59.864 46.9843 59.96 46.9843 60.0081 46.9362C60.0561 46.8881 60.1042 46.8881 60.1522 46.7919C60.1522 46.7437 60.2003 46.6475 60.2003 46.5032C60.2003 45.5408 60.2003 44.6266 60.2003 43.6643C60.2003 43.5199 60.2003 43.4237 60.1522 43.3756C60.1042 43.3275 60.1042 43.2794 60.0561 43.2794C60.0081 43.2312 59.912 43.2312 59.7198 43.2312C59.6718 43.2312 59.5757 43.2312 59.5276 43.2312C59.5276 43.0388 59.5276 42.7982 59.5276 42.5576ZM61.4975 43.3756C61.4975 44.4342 61.4975 45.5408 61.4975 46.5994C61.4975 46.6956 61.4975 46.7919 61.5455 46.7919C61.5455 46.84 61.5935 46.84 61.6416 46.8881C61.6896 46.8881 61.7857 46.8881 61.9299 46.8881C62.3623 46.8881 62.6505 46.84 62.8907 46.6956C63.131 46.5513 63.3231 46.3588 63.4673 46.1182C63.6114 45.8295 63.6594 45.4927 63.6594 45.1078C63.6594 44.7229 63.5634 44.386 63.4673 44.1455C63.3231 43.8568 63.131 43.6643 62.9388 43.5681C62.7466 43.4237 62.4583 43.3756 62.074 43.3756C61.8818 43.3756 61.6896 43.3756 61.4975 43.3756Z" fill="black"/>
<path fill-rule="evenodd" clip-rule="evenodd" d="M67.5971 42.5576C67.9815 42.5576 68.4139 42.5576 68.7982 42.5576C69.3267 43.9049 69.8552 45.204 70.3837 46.5513C70.4798 46.7437 70.5278 46.8881 70.6239 46.9362C70.6719 46.9843 70.8161 46.9843 71.0082 46.9843C71.0082 47.2249 71.0082 47.4655 71.0082 47.7061C70.1434 47.7061 69.3267 47.7061 68.4619 47.7061C68.4619 47.4655 68.4619 47.2249 68.4619 46.9843C68.5099 46.9843 68.558 46.9843 68.606 46.9843C68.7502 46.9843 68.8463 46.9362 68.8943 46.9362C68.9424 46.8881 68.9904 46.84 68.9904 46.7919C68.9904 46.7437 68.9424 46.6475 68.8943 46.5032C68.8463 46.3588 68.7982 46.1663 68.7502 46.022C68.1736 46.022 67.6452 46.022 67.1167 46.022C67.0686 46.2145 66.9725 46.3588 66.9245 46.5513C66.8765 46.6475 66.8764 46.7437 66.8764 46.7919C66.8764 46.84 66.8765 46.8881 66.9245 46.8881C66.9725 46.9362 67.0206 46.9362 67.0686 46.9843C67.1167 46.9843 67.2128 46.9843 67.453 46.9843C67.453 47.2249 67.453 47.4655 67.453 47.7061C66.7804 47.7061 66.0597 47.7061 65.3871 47.7061C65.3871 47.4655 65.3871 47.2249 65.3871 46.9843C65.5312 46.9843 65.6273 46.9843 65.6753 46.9362C65.7234 46.9362 65.7714 46.8881 65.8195 46.84C65.8675 46.7919 65.9156 46.6956 65.9636 46.5994C66.4921 45.2521 67.0686 43.9049 67.5971 42.5576ZM67.453 45.3002C67.7893 45.3002 68.1736 45.3002 68.51 45.3002C68.3658 44.8191 68.1736 44.3379 67.9815 43.9049C67.8373 44.386 67.6452 44.8672 67.453 45.3002Z" fill="black"/>
<path fill-rule="evenodd" clip-rule="evenodd" d="M71.2968 42.5576C72.4018 42.5576 73.5068 42.5576 74.6118 42.5576C74.804 42.5576 75.0442 42.6057 75.3325 42.6057C75.5727 42.6539 75.8129 42.702 76.0051 42.8463C76.1972 42.9907 76.3894 43.135 76.4855 43.3275C76.5816 43.5199 76.6777 43.7605 76.6777 44.0011C76.6777 44.386 76.5336 44.7229 76.2453 44.9634C75.957 45.204 75.6207 45.3484 75.2364 45.4446C75.6207 45.8776 75.957 46.2626 76.3414 46.6956L76.3894 46.7437C76.4855 46.84 76.5336 46.8881 76.5816 46.9362C76.6296 46.9843 76.6777 47.0324 76.7738 47.0324C76.8218 47.0806 76.9179 47.0806 77.014 47.0806C77.1101 47.0806 77.1581 47.0806 77.2542 47.0806C77.2542 47.3211 77.2542 47.5617 77.2542 47.8023C76.6777 47.8023 76.1012 47.8023 75.5246 47.8023C74.9481 47.0806 74.3716 46.3107 73.795 45.589C73.6509 45.589 73.5068 45.589 73.3626 45.589C73.3626 45.9258 73.3626 46.2626 73.3626 46.5994C73.3626 46.7919 73.3626 46.8881 73.4107 46.9362C73.4587 46.9843 73.4587 47.0324 73.5068 47.0324C73.5548 47.0806 73.6509 47.0806 73.795 47.0806C73.8911 47.0806 73.9392 47.0806 74.0353 47.0806C74.0353 47.3211 74.0353 47.5617 74.0353 47.8023C73.1705 47.8023 72.3057 47.8023 71.3928 47.8023C71.3928 47.5617 71.3928 47.3211 71.3928 47.0806C71.4889 47.0806 71.537 47.0806 71.6331 47.0806C71.7772 47.0806 71.8252 47.0806 71.9213 47.0324C71.9694 46.9843 72.0174 46.9843 72.0174 46.9362C72.0174 46.8881 72.0655 46.7919 72.0655 46.6475C72.0655 45.6852 72.0655 44.7229 72.0655 43.7605C72.0655 43.6643 72.0655 43.5681 72.0174 43.5199C72.0174 43.4718 71.9694 43.4237 71.9213 43.4237C71.8733 43.3756 71.7772 43.3756 71.7291 43.3756C71.6811 43.3756 71.6331 43.3756 71.6331 43.3756C71.585 43.3756 71.4889 43.3756 71.4409 43.3756C71.2967 43.0388 71.2968 42.7982 71.2968 42.5576ZM73.3146 43.3756C73.3146 43.8086 73.3146 44.2898 73.3146 44.7229C73.5548 44.7229 73.8431 44.7229 74.0833 44.7229C74.4196 44.7229 74.6598 44.6747 74.804 44.6266C74.9481 44.5785 75.0922 44.4823 75.1403 44.386C75.2364 44.2898 75.2364 44.1455 75.2364 44.0011C75.2364 43.8568 75.1883 43.7605 75.1403 43.6643C75.0922 43.5681 74.9481 43.5199 74.852 43.4718C74.7079 43.4237 74.4677 43.4237 74.1794 43.4237C73.8911 43.3756 73.6029 43.3756 73.3146 43.3756Z" fill="black"/>
<path fill-rule="evenodd" clip-rule="evenodd" d="M77.4475 42.5576C78.4084 42.5576 79.3212 42.5576 80.2821 42.5576C80.9067 42.5576 81.4352 42.6539 81.8195 42.8463C82.2039 43.0388 82.4921 43.3275 82.7323 43.7124C82.9245 44.0973 83.0687 44.5785 83.0687 45.1078C83.0687 45.4927 83.0206 45.8295 82.8765 46.1182C82.7804 46.4069 82.5882 46.6956 82.348 46.8881C82.1078 47.1287 81.8676 47.3211 81.6273 47.4174C81.4352 47.5136 81.1469 47.5617 80.8106 47.6098C80.4262 47.658 80.138 47.7061 79.9458 47.7061C79.1291 47.7061 78.3123 47.7061 77.4475 47.7061C77.4475 47.4655 77.4475 47.2249 77.4475 46.9843C77.4956 46.9843 77.5916 46.9843 77.6397 46.9843C77.7838 46.9843 77.8799 46.9843 77.9279 46.9362C77.976 46.8881 78.024 46.8881 78.0721 46.7919C78.1201 46.7437 78.1201 46.6475 78.1201 46.5032C78.1201 45.5408 78.1201 44.6266 78.1201 43.6643C78.1201 43.5199 78.1201 43.4237 78.0721 43.3756C78.024 43.3275 78.024 43.2794 77.976 43.2794C77.928 43.2312 77.8319 43.2312 77.6397 43.2312C77.5916 43.2312 77.4956 43.2312 77.4475 43.2312C77.4475 43.0388 77.4475 42.7982 77.4475 42.5576ZM79.4654 43.3756C79.4654 44.4342 79.4654 45.5408 79.4654 46.5994C79.4654 46.6956 79.4654 46.7919 79.4654 46.7919C79.5134 46.84 79.5134 46.84 79.5614 46.8881C79.6095 46.8881 79.7056 46.8881 79.8497 46.8881C80.2821 46.8881 80.6184 46.84 80.8586 46.6956C81.0989 46.5513 81.291 46.3588 81.4352 46.1182C81.5793 45.8295 81.6754 45.4927 81.6754 45.1078C81.6754 44.7229 81.5793 44.386 81.4832 44.1455C81.3391 43.8568 81.1949 43.6643 81.0028 43.5681C80.8106 43.4237 80.5223 43.3756 80.138 43.3756C79.8497 43.3756 79.6095 43.3756 79.4654 43.3756Z" fill="black"/>
<path fill-rule="evenodd" clip-rule="evenodd" d="M90.4185 42.5579C90.6107 42.5579 90.7549 42.5579 90.947 42.5579C91.1392 43.1834 91.2834 43.8089 91.4755 44.4344C91.2353 44.4825 90.9951 44.5788 90.7549 44.6269C90.5146 44.1938 90.2744 43.857 90.0822 43.6646C89.794 43.424 89.4577 43.2796 89.1214 43.2796C88.8811 43.2796 88.6409 43.3759 88.4487 43.4721C88.2085 43.6164 88.0644 43.8089 87.9203 44.0495C87.7761 44.2901 87.7281 44.6269 87.7281 44.9637C87.7281 45.493 87.8722 45.926 88.1605 46.3591C88.4487 46.744 88.8331 46.9365 89.3135 46.9365C89.6018 46.9365 89.8901 46.8402 90.1783 46.6959C90.5146 46.5034 90.851 46.2147 91.0912 45.8779C91.2833 46.0223 91.4755 46.1666 91.6677 46.311C91.2833 46.7921 90.947 47.1771 90.6107 47.3695C90.1303 47.7063 89.5538 47.8507 88.9772 47.8507C88.4968 47.8507 88.0163 47.7544 87.5839 47.5139C87.1515 47.2733 86.8633 46.9365 86.6231 46.5515C86.3828 46.1185 86.2387 45.6854 86.2387 45.1562C86.2387 44.675 86.3828 44.1938 86.575 43.8089C86.8152 43.3759 87.1515 43.0872 87.5359 42.8466C87.9683 42.606 88.4007 42.5098 88.9292 42.5098C89.4096 42.5098 89.8901 42.606 90.2744 42.8466C90.3225 42.7022 90.3705 42.606 90.4185 42.5579Z" fill="black"/>
<path fill-rule="evenodd" clip-rule="evenodd" d="M92.1521 42.5576C93.0169 42.5576 93.8817 42.5576 94.7465 42.5576C94.7465 42.7982 94.7465 43.0388 94.7465 43.2794C94.6504 43.2794 94.6024 43.2794 94.5063 43.2794C94.3621 43.2794 94.3141 43.2794 94.266 43.2794C94.218 43.3275 94.17 43.3756 94.1219 43.3756C94.0739 43.4237 94.0739 43.5199 94.0739 43.6162C94.0739 44.5785 94.0739 45.5889 94.0739 46.5513C94.0739 46.6956 94.0739 46.7437 94.0739 46.7919C94.0739 46.84 94.1219 46.84 94.17 46.84C94.218 46.84 94.2661 46.8881 94.3621 46.8881C94.6984 46.8881 94.9867 46.84 95.1789 46.7437C95.3711 46.6475 95.5632 46.5032 95.7554 46.3107C95.8995 46.1182 96.0917 45.8776 96.1878 45.5408C96.428 45.6371 96.6682 45.6852 96.9085 45.7814C96.6682 46.4069 96.428 47.0324 96.1878 47.7061C94.8426 47.7061 93.4493 47.7061 92.1041 47.7061C92.1041 47.4655 92.1041 47.2249 92.1041 46.9843C92.2002 46.9843 92.2482 46.9843 92.3443 46.9843C92.4404 46.9843 92.5365 46.9843 92.5845 46.9362C92.6325 46.8881 92.6806 46.8881 92.7286 46.84C92.7286 46.7919 92.7767 46.6956 92.7767 46.5994C92.7767 45.6371 92.7767 44.6266 92.7767 43.6643C92.7767 43.5199 92.7767 43.4718 92.7286 43.3756C92.6806 43.3275 92.6806 43.2794 92.6326 43.2794C92.5845 43.2312 92.5365 43.2312 92.3923 43.2312C92.2962 43.2312 92.2002 43.2312 92.1041 43.2312C92.1521 43.0388 92.1521 42.7982 92.1521 42.5576Z" fill="black"/>
<path fill-rule="evenodd" clip-rule="evenodd" d="M100.027 42.459C100.892 42.459 101.565 42.6996 102.093 43.2288C102.622 43.71 102.862 44.3836 102.862 45.1535C102.862 45.6828 102.718 46.1158 102.478 46.5489C102.237 46.9338 101.901 47.2706 101.469 47.5112C101.036 47.7037 100.508 47.848 99.9312 47.848C99.1625 47.848 98.4898 47.6556 98.0094 47.2225C97.3848 46.6932 97.0966 46.0196 97.0966 45.2016C97.0966 44.4318 97.3848 43.7581 97.9133 43.277C98.4898 42.6996 99.1625 42.459 100.027 42.459ZM100.075 43.277C99.6429 43.277 99.3546 43.4213 99.1144 43.71C98.8261 44.0949 98.682 44.5761 98.682 45.1535C98.682 45.7309 98.8261 46.2121 99.1144 46.5489C99.3546 46.8376 99.6909 46.9819 100.075 46.9819C100.46 46.9819 100.796 46.8376 101.036 46.5489C101.324 46.2121 101.469 45.7309 101.469 45.1535C101.469 44.7205 101.421 44.3836 101.276 44.1431C101.132 43.8544 100.988 43.6619 100.796 43.5175C100.508 43.3251 100.267 43.277 100.075 43.277Z" fill="black"/>
<path fill-rule="evenodd" clip-rule="evenodd" d="M103.824 42.3652C103.968 42.3652 104.16 42.3652 104.304 42.3652C104.304 42.4134 104.352 42.5096 104.352 42.5577C105.361 42.5577 106.37 42.5577 107.379 42.5577C107.379 42.5096 107.427 42.4615 107.427 42.3652C107.571 42.3652 107.764 42.3652 107.908 42.3652C108.148 42.9907 108.34 43.5681 108.58 44.1937C108.34 44.2899 108.1 44.338 107.86 44.4342C107.716 44.1455 107.619 43.9531 107.523 43.8568C107.379 43.6644 107.235 43.52 107.043 43.4238C106.899 43.3276 106.803 43.2794 106.659 43.2794C106.611 43.2794 106.562 43.3276 106.514 43.3276C106.514 43.3757 106.466 43.4238 106.466 43.52C106.466 44.5305 106.466 45.4928 106.466 46.5032C106.466 46.6957 106.466 46.7919 106.466 46.8401C106.466 46.8882 106.514 46.9363 106.514 46.9363C106.562 46.9844 106.611 46.9844 106.659 46.9844C106.707 46.9844 106.851 46.9844 107.091 46.9844C107.091 47.225 107.091 47.4656 107.091 47.7061C106.226 47.7061 105.361 47.7061 104.497 47.7061C104.497 47.4656 104.497 47.225 104.497 46.9844C104.545 46.9844 104.593 46.9844 104.641 46.9844C104.833 46.9844 104.929 46.9844 104.977 46.9363C105.025 46.9363 105.073 46.8882 105.073 46.8401C105.121 46.7919 105.121 46.6957 105.121 46.5032C105.121 45.4928 105.121 44.4823 105.121 43.4719C105.121 43.3757 105.121 43.3276 105.073 43.3276C105.025 43.2794 105.025 43.2794 104.929 43.2794C104.785 43.2794 104.641 43.3276 104.497 43.4238C104.352 43.52 104.16 43.6644 104.064 43.8087C104.016 43.905 103.92 44.0493 103.728 44.3861C103.488 44.2899 103.247 44.2418 103.007 44.1455C103.392 43.5681 103.632 42.9426 103.824 42.3652Z" fill="black"/>
<path fill-rule="evenodd" clip-rule="evenodd" d="M108.963 42.5576C109.828 42.5576 110.692 42.5576 111.557 42.5576C111.557 42.7982 111.557 43.0388 111.557 43.2794C111.461 43.2794 111.413 43.2794 111.317 43.2794C111.173 43.2794 111.125 43.2794 111.077 43.3275C111.029 43.3756 110.981 43.3756 110.981 43.4237C110.933 43.4718 110.933 43.5681 110.933 43.7605C110.933 44.0492 110.933 44.386 110.933 44.6747C111.605 44.6747 112.23 44.6747 112.903 44.6747C112.903 44.3379 112.903 44.0492 112.903 43.7124C112.903 43.5681 112.903 43.5199 112.854 43.4718C112.806 43.4237 112.806 43.3756 112.758 43.3756C112.71 43.3275 112.614 43.3275 112.422 43.3275C112.326 43.3275 112.278 43.3275 112.23 43.3275C112.23 43.0869 112.23 42.8463 112.23 42.6057C113.095 42.6057 113.959 42.6057 114.872 42.6057C114.872 42.8463 114.872 43.0869 114.872 43.3275C114.776 43.3275 114.728 43.3275 114.632 43.3275C114.488 43.3275 114.392 43.3275 114.344 43.3756C114.296 43.4237 114.248 43.4237 114.248 43.4718C114.2 43.5199 114.2 43.6162 114.2 43.8086C114.2 44.7229 114.2 45.6852 114.2 46.5994C114.2 46.7919 114.2 46.8881 114.248 46.9362C114.296 46.9843 114.296 47.0324 114.344 47.0324C114.392 47.0806 114.488 47.0805 114.68 47.0805C114.728 47.0805 114.776 47.0805 114.824 47.0805C114.824 47.3211 114.824 47.5617 114.824 47.8023C113.959 47.8023 113.047 47.8023 112.182 47.8023C112.182 47.5617 112.182 47.3211 112.182 47.0805C112.23 47.0805 112.278 47.0805 112.326 47.0805C112.47 47.0805 112.614 47.0806 112.662 47.0324C112.71 46.9843 112.758 46.9843 112.758 46.9362C112.806 46.8881 112.806 46.7919 112.806 46.5994C112.806 46.2626 112.806 45.8776 112.806 45.5408C112.134 45.5408 111.509 45.5408 110.837 45.5408C110.837 45.9258 110.837 46.2626 110.837 46.5994C110.837 46.7919 110.837 46.8881 110.885 46.9362C110.933 46.9843 110.933 47.0324 110.981 47.0805C111.029 47.0805 111.125 47.1287 111.317 47.1287C111.365 47.1287 111.461 47.1287 111.509 47.1287C111.509 47.3693 111.509 47.6098 111.509 47.8504C110.644 47.8504 109.78 47.8504 108.915 47.8504C108.915 47.6098 108.915 47.3693 108.915 47.1287C108.963 47.1287 109.011 47.1287 109.107 47.1287C109.251 47.1287 109.347 47.1287 109.395 47.0805C109.443 47.0324 109.491 47.0324 109.539 46.9843C109.587 46.9362 109.587 46.84 109.587 46.6956C109.587 45.7333 109.587 44.8191 109.587 43.9049C109.587 43.7124 109.587 43.6162 109.539 43.5681C109.491 43.5199 109.491 43.4718 109.443 43.4718C109.395 43.4237 109.299 43.4237 109.155 43.4237C109.059 43.4237 109.011 43.4237 108.915 43.4237C108.963 43.0388 108.963 42.7982 108.963 42.5576Z" fill="black"/>
<path fill-rule="evenodd" clip-rule="evenodd" d="M115.4 42.5576C116.265 42.5576 117.13 42.5576 117.995 42.5576C117.995 42.7982 117.995 43.0388 117.995 43.2794C117.899 43.2794 117.851 43.2794 117.754 43.2794C117.61 43.2794 117.514 43.2794 117.466 43.3275C117.418 43.3756 117.37 43.3756 117.37 43.4237C117.37 43.4718 117.322 43.5681 117.322 43.7124C117.322 44.6747 117.322 45.6371 117.322 46.5513C117.322 46.6956 117.322 46.7919 117.37 46.84C117.37 46.8881 117.418 46.9362 117.466 46.9362C117.514 46.9843 117.61 46.9843 117.706 46.9843C117.802 46.9843 117.899 46.9843 117.995 46.9843C117.995 47.2249 117.995 47.4655 117.995 47.7061C117.13 47.7061 116.265 47.7061 115.4 47.7061C115.4 47.4655 115.4 47.2249 115.4 46.9843C115.448 46.9843 115.544 46.9843 115.592 46.9843C115.737 46.9843 115.833 46.9843 115.881 46.9362C115.929 46.9362 115.977 46.8881 115.977 46.84C116.025 46.7919 116.025 46.6956 116.025 46.5513C116.025 45.5889 116.025 44.6266 116.025 43.6643C116.025 43.5199 116.025 43.4237 115.977 43.3275C115.977 43.2794 115.929 43.2312 115.881 43.1831C115.833 43.1831 115.737 43.135 115.64 43.135C115.544 43.135 115.496 43.135 115.4 43.135C115.4 43.0388 115.4 42.7982 115.4 42.5576Z" fill="black"/>
<path fill-rule="evenodd" clip-rule="evenodd" d="M118.571 42.5576C119.292 42.5576 120.012 42.5576 120.733 42.5576C121.262 43.5681 121.79 44.5785 122.319 45.5889C122.319 44.9634 122.319 44.3379 122.319 43.7605C122.319 43.6162 122.319 43.5199 122.271 43.4718C122.222 43.4237 122.222 43.3756 122.174 43.3275C122.126 43.2794 122.03 43.2794 121.934 43.2794C121.838 43.2794 121.742 43.2794 121.694 43.2794C121.694 43.0388 121.694 42.7982 121.694 42.5576C122.415 42.5576 123.183 42.5576 123.904 42.5576C123.904 42.7982 123.904 43.0388 123.904 43.2794C123.808 43.2794 123.76 43.2794 123.664 43.2794C123.52 43.2794 123.472 43.2794 123.424 43.3275C123.376 43.3756 123.327 43.3756 123.327 43.4237C123.279 43.4718 123.279 43.5681 123.279 43.7124C123.279 45.0597 123.279 46.3588 123.279 47.7061C122.895 47.7061 122.559 47.7061 122.174 47.7061C121.502 46.455 120.829 45.1559 120.157 43.9049C120.157 44.8191 120.157 45.6852 120.157 46.5513C120.157 46.6956 120.157 46.7919 120.205 46.84C120.253 46.8881 120.253 46.9362 120.301 46.9362C120.349 46.9843 120.445 46.9843 120.541 46.9843C120.637 46.9843 120.733 46.9843 120.781 46.9843C120.781 47.2249 120.781 47.4655 120.781 47.7061C120.06 47.7061 119.292 47.7061 118.571 47.7061C118.571 47.4655 118.571 47.2249 118.571 46.9843C118.667 46.9843 118.715 46.9843 118.811 46.9843C118.955 46.9843 119.052 46.9843 119.052 46.9362C119.1 46.9362 119.148 46.8881 119.148 46.84C119.196 46.7919 119.196 46.6956 119.196 46.5994C119.196 45.6371 119.196 44.6266 119.196 43.6162C119.196 43.5199 119.196 43.4237 119.148 43.3756C119.1 43.3275 119.1 43.2794 119.052 43.2794C119.004 43.2312 118.955 43.2312 118.859 43.2312C118.763 43.2312 118.667 43.2312 118.571 43.2312C118.571 43.0388 118.571 42.7982 118.571 42.5576Z" fill="black"/>
<path fill-rule="evenodd" clip-rule="evenodd" d="M127.555 44.961C128.42 44.961 129.285 44.961 130.15 44.961C130.15 45.2016 130.15 45.4422 130.15 45.6828C130.102 45.6828 130.006 45.6828 129.958 45.6828C129.813 45.6828 129.717 45.6828 129.717 45.7309C129.669 45.779 129.621 45.779 129.621 45.8271C129.573 45.8752 129.573 45.9715 129.573 46.1158C129.573 46.6451 129.573 47.2225 129.573 47.7518C129.333 47.7518 129.045 47.7518 128.805 47.7518C128.708 47.6074 128.66 47.5112 128.612 47.3669C128.372 47.5112 128.132 47.6074 127.892 47.7037C127.652 47.7999 127.363 47.7999 127.075 47.7999C126.595 47.7999 126.114 47.7037 125.73 47.4631C125.345 47.2225 125.009 46.8857 124.769 46.5008C124.529 46.0677 124.433 45.6347 124.433 45.1054C124.433 44.6242 124.529 44.1431 124.769 43.7581C125.009 43.3732 125.345 43.0364 125.73 42.7958C126.114 42.5552 126.595 42.459 127.075 42.459C127.315 42.459 127.555 42.5071 127.796 42.5552C128.036 42.6033 128.228 42.6996 128.42 42.7958C128.468 42.6996 128.516 42.6514 128.564 42.5552C128.757 42.5552 128.949 42.5552 129.093 42.5552C129.237 43.1326 129.429 43.71 129.573 44.2874C129.333 44.3836 129.093 44.4318 128.853 44.528C128.612 44.1431 128.42 43.9025 128.276 43.7581C128.132 43.6138 127.988 43.5175 127.796 43.4213C127.603 43.3251 127.459 43.277 127.267 43.277C127.027 43.277 126.787 43.3732 126.595 43.4694C126.402 43.6138 126.21 43.8062 126.114 44.0468C125.97 44.2874 125.922 44.6242 125.922 45.0092C125.922 45.4422 126.018 45.779 126.114 46.0677C126.258 46.3564 126.45 46.5489 126.643 46.7413C126.835 46.8857 127.075 46.9338 127.363 46.9338C127.555 46.9338 127.748 46.8857 127.892 46.8376C128.036 46.7413 128.18 46.6932 128.228 46.597C128.276 46.5008 128.324 46.4045 128.324 46.2121C128.324 46.1639 128.324 46.0677 128.324 46.0196C128.324 45.8752 128.324 45.8271 128.276 45.779C128.228 45.7309 128.228 45.6828 128.18 45.6828C128.132 45.6347 128.036 45.6347 127.892 45.6347C127.796 45.6347 127.7 45.6347 127.603 45.6347C127.555 45.4422 127.555 45.2016 127.555 44.961Z" fill="black"/>
</svg>
