<svg width="164" height="26" viewBox="0 0 164 26" fill="none" xmlns="http://www.w3.org/2000/svg">
<path d="M1.67859 25.5471V0.377197H7.12577V20.7923H17.8671V25.5471H1.67859Z" fill="#3B4021"/>
<path d="M23.848 25.5472V0.377258H29.2579V25.5472H23.848Z" fill="#3B4021"/>
<path d="M36.3789 25.5472V0.377258H41.8261V20.7924H52.5674V25.5472H36.3789Z" fill="#3B4021"/>
<path d="M61.6466 25.5472V15.2444L51.8943 0.377258H58.0655L64.3506 10.4526L70.6357 0.377258H76.7677L67.0546 15.2444V25.5472H61.6466Z" fill="#3B4021"/>
<path d="M89.7578 26C87.2952 26 85.1799 25.6345 83.4158 24.9056C81.6498 24.1766 80.1585 23.2066 78.9399 21.9994L81.9108 17.8102C82.7997 18.7414 83.9299 19.5462 85.3015 20.2246C86.6731 20.903 88.2351 21.2432 89.9874 21.2432C91.5101 21.2432 92.6285 20.9594 93.3389 20.3937C94.0492 19.828 94.4063 19.1807 94.4063 18.4498C94.4063 17.7208 94.0453 17.1668 93.3212 16.7897C92.5971 16.4126 91.6965 16.086 90.6172 15.808C89.538 15.532 88.3626 15.2481 87.0931 14.9585C85.8235 14.6689 84.6481 14.249 83.5689 13.695C82.4896 13.1409 81.589 12.3925 80.8649 11.4497C80.1408 10.5069 79.7798 9.24142 79.7798 7.65712C79.7798 6.59963 80.0015 5.61406 80.4469 4.69458C80.8904 3.77705 81.5262 2.96449 82.3523 2.26078C83.1764 1.55708 84.187 1.00307 85.38 0.600673C86.5711 0.202168 87.9172 0 89.4144 0C93.4527 0 96.7532 1.17024 99.3178 3.50878L96.3078 7.50938C95.2658 6.55297 94.0983 5.8551 92.8032 5.41578C91.5081 4.97645 90.213 4.75484 88.9179 4.75484C87.7759 4.75484 86.8929 4.98034 86.2709 5.43327C85.6489 5.88621 85.3369 6.49077 85.3369 7.24501C85.3369 7.90011 85.6979 8.40164 86.422 8.7535C87.146 9.10534 88.0467 9.41443 89.1259 9.6788C90.2052 9.94318 91.3727 10.2328 92.6305 10.5458C93.8883 10.8607 95.0558 11.3 96.1351 11.8657C97.2143 12.4314 98.115 13.1934 98.839 14.1479C99.5631 15.1043 99.9242 16.362 99.9242 17.921C99.9242 19.0777 99.7142 20.1468 99.2962 21.1285C98.8763 22.1102 98.2425 22.9597 97.3909 23.6751C96.5393 24.3924 95.4797 24.9581 94.2101 25.3741C92.9445 25.792 91.459 26 89.7578 26Z" fill="#3B4021"/>
<path d="M105.87 25.5472V0.377258H111.28V25.5472H105.87Z" fill="#3B4021"/>
<path d="M118.403 25.5472V0.377258H123.85V20.7924H134.591V25.5472H118.403Z" fill="#3B4021"/>
<path d="M155.656 25.5472L147.962 15.4349L145.982 17.8123V25.5472H140.572V0.377258H145.982V11.5859L154.969 0.377258H161.635L151.541 12.1885L162.321 25.5472H155.656Z" fill="#3B4021"/>
</svg>
