<svg xmlns="http://www.w3.org/2000/svg" viewBox="0 0 211.1 29.14"><path d="M34.44 0c3.97 0 7.21 1.21 9.73 3.62 2.52 2.41 3.78 5.42 3.78 9.03 0 4.65-1.46 8.56-4.38 11.73s-6.79 4.76-11.62 4.76c-3.92 0-7.12-1.28-9.62-3.84-2.5-2.56-3.74-5.63-3.74-9.22 0-2.42.6-4.9 1.8-7.45 1.2-2.55 3.01-4.62 5.43-6.23 2.42-1.61 5.29-2.41 8.6-2.41zm-.12 27.64c1.95 0 3.87-.52 5.76-1.56 1.89-1.04 3.39-2.48 4.47-4.31 1.09-1.83 1.63-3.71 1.63-5.64 0-2.74-.73-5.23-2.2-7.47a15.715 15.715 0 00-5.7-5.26c-2.34-1.27-4.5-1.9-6.48-1.9-2.8 0-5.35 1.06-7.63 3.17-2.28 2.11-3.43 4.73-3.43 7.87 0 4 1.39 7.52 4.19 10.56 2.79 3.03 5.92 4.55 9.39 4.55zM148.82 0c3.97 0 7.21 1.21 9.73 3.62 2.52 2.41 3.78 5.42 3.78 9.03 0 4.65-1.46 8.56-4.38 11.73s-6.79 4.76-11.61 4.76c-3.92 0-7.12-1.28-9.62-3.84-2.5-2.56-3.74-5.63-3.74-9.22 0-2.42.6-4.9 1.8-7.45 1.2-2.55 3.01-4.62 5.43-6.23 2.42-1.61 5.29-2.41 8.6-2.41zm-.11 27.64c1.95 0 3.86-.52 5.76-1.56 1.89-1.04 3.39-2.48 4.47-4.31s1.63-3.71 1.63-5.64c0-2.74-.73-5.23-2.2-7.47a15.715 15.715 0 00-5.7-5.26c-2.34-1.27-4.5-1.9-6.48-1.9-2.8 0-5.35 1.06-7.63 3.17-2.28 2.11-3.43 4.73-3.43 7.87 0 4 1.39 7.52 4.18 10.56 2.79 3.03 5.92 4.55 9.39 4.55zm-76.93 1.25h3.26V.42h-3.31c.03.38.04.83.04 1.34v21.55c-2.37 2.75-5.08 4.13-8.13 4.13-1.94 0-3.68-.7-5.2-2.08-1.52-1.39-2.28-3.71-2.28-6.96V.43h-3.27v19.59c0 2.78.82 4.95 2.46 6.53 1.64 1.57 3.86 2.36 6.66 2.36 3.77 0 7.02-1.52 9.74-4.55v4.55zm114.38 0h3.26V.42h-3.31c.03.38.04.83.04 1.34v21.55c-2.36 2.75-5.08 4.13-8.13 4.13-1.94 0-3.68-.7-5.2-2.08-1.52-1.39-2.28-3.71-2.28-6.96V.43h-3.27v19.59c0 2.78.82 4.95 2.46 6.53 1.64 1.57 3.86 2.36 6.66 2.36 3.77 0 7.02-1.52 9.74-4.55v4.55zm-76.65-2.18c-1.23.73-2.32 1.09-3.26 1.09s-1.95-.28-2.98-.85c-1.02-.57-2.47-2.15-4.35-4.75-1.87-2.6-3.03-4.28-3.47-5.04l-2-3.07c1.57-.9 2.79-2 3.66-3.29s1.3-2.67 1.3-4.1c0-1.25-.24-2.31-.73-3.18-.49-.87-1.21-1.55-2.16-2.06-.95-.5-1.88-.8-2.79-.89-.91-.09-2.38-.13-4.42-.13h-5.99v28.47h3.26V15.18h2.29l2.52-.08 2.84 4.37s.01.05.04.08c2.92 4.35 4.97 7.01 6.14 7.98 1.18.97 2.58 1.45 4.22 1.45 2.45 0 4.45-.63 5.98-1.88l-.11-.38zM88.55 14.44h-2.96V1.17h2.33c2.79 0 4.75.78 5.86 2.33 1.11 1.56 1.66 3.2 1.66 4.95s-.56 3.24-1.69 4.34c-1.13 1.1-2.86 1.65-5.19 1.65zM130.24.42l-9.37 23.34L111.48.42h-3.5l11.59 28.72h.37L131.48.42h-1.24zM15.16 3.78c-.6-.95-1.54-1.75-2.84-2.39C11.02.75 8.94.43 6.07.43H0v28.28h3.26V1.38h2.02c2.02 0 3.53.28 4.51.84.98.56 1.75 1.39 2.29 2.47.54 1.08.82 2.32.82 3.71 0 1.79-.56 3.24-1.68 4.34-1.12 1.1-2.58 1.65-4.37 1.65v.29c2.83.05 5.07-.53 6.72-1.73 1.65-1.2 2.48-3.01 2.48-5.4 0-1.56-.3-2.82-.89-3.78zm191.36 9.88c-1.07-.49-3.06-1.23-5.96-2.21-1.69-.67-2.8-1.39-3.33-2.17-.53-.77-.8-1.68-.8-2.72 0-1.56.57-2.9 1.7-4 1.13-1.11 2.67-1.66 4.6-1.66 1.15 0 2.18.2 3.1.61.89.39 1.68.94 2.37 1.65V.78s-.09-.01-.13-.03c-.13-.06-.74-.2-1.84-.42-1.1-.22-2.12-.33-3.07-.33-2.45 0-4.42.74-5.92 2.23-1.5 1.48-2.26 3.32-2.26 5.5 0 1.19.29 2.36.88 3.5.59 1.15 1.32 2 2.2 2.57.88.57 2.4 1.23 4.56 1.99 2.18.75 3.65 1.38 4.43 1.9.78.52 1.39 1.12 1.82 1.8.43.68.65 1.51.65 2.49 0 1.6-.62 2.97-1.87 4.11-1.17 1.07-2.86 1.63-5.05 1.7s-.22 0-.22 0h-6.42v.91h5.69c.4 0 1.22-.07 2.46-.21 1.24-.14 2.15-.35 2.73-.62.58-.28 1.14-.68 1.7-1.21.56-.53 1.03-1.12 1.43-1.76.4-.65.68-1.32.86-2.01.18-.7.27-1.43.27-2.2 0-1.84-.5-3.35-1.49-4.53-.99-1.18-2.02-2.01-3.09-2.5z" fill="#040000"/></svg>